<svg version="1.1" id="Layer_1" xmlns="http://www.w3.org/2000/svg" xmlns:xlink="http://www.w3.org/1999/xlink" x="0px" y="0px"
	 width="100%" viewBox="0 0 1000 1184" enable-background="new 0 0 1000 1184" xml:space="preserve">
<path fill="#1A1A1A" opacity="1.000000" stroke="none" 
	d="
M495.000000,1185.000000 
	C330.000000,1185.000000 165.500000,1185.000000 1.000000,1185.000000 
	C1.000000,790.333313 1.000000,395.666656 1.000000,1.000000 
	C334.333344,1.000000 667.666687,1.000000 1001.000000,1.000000 
	C1001.000000,395.666656 1001.000000,790.333313 1001.000000,1185.000000 
	C832.500000,1185.000000 664.000000,1185.000000 495.000000,1185.000000 
M288.078094,934.966980 
	C288.078094,934.966980 288.248108,934.768311 288.197540,935.459534 
	C294.646454,940.340393 301.038757,945.299255 307.583588,950.047974 
	C309.240753,951.250366 311.384064,951.782837 313.327454,952.672363 
	C313.327454,952.672363 313.374725,952.699585 313.247070,953.378418 
	C319.854523,958.004883 326.281433,962.918762 333.103027,967.204468 
	C354.001434,980.333862 374.817383,993.621216 396.104065,1006.098755 
	C420.370941,1020.322998 445.054230,1033.843262 469.704346,1047.400757 
	C473.382202,1049.423584 477.868530,1049.976318 482.910095,1051.228638 
	C486.952576,1051.255981 490.995087,1051.283325 495.595490,1051.753662 
	C496.897522,1051.615234 498.366028,1051.820801 499.475372,1051.284058 
	C508.975494,1046.687012 518.509888,1042.143311 527.838196,1037.213257 
	C537.813293,1031.941284 547.652832,1026.400146 557.414429,1020.739868 
	C575.636047,1010.173950 594.046509,999.893372 611.849426,988.655945 
	C634.378601,974.435242 656.438110,959.465027 678.556213,944.603699 
	C682.649597,941.853210 686.060852,938.087341 689.961060,934.997620 
	C689.961060,934.997620 689.802673,934.778931 690.519897,934.942322 
	C692.950989,932.899536 695.382019,930.856812 697.981079,929.000732 
	C697.981079,929.000732 697.823792,928.806213 698.537537,928.898438 
	C710.383362,919.644470 722.268005,910.439331 734.034180,901.085205 
	C735.848877,899.642517 737.119446,897.515503 738.687927,895.679565 
	C738.687927,895.679565 738.712219,895.632568 739.391296,895.735474 
	C739.888672,895.103027 740.386047,894.470581 741.282776,893.448914 
	C741.800049,892.922668 742.317322,892.396484 743.564819,891.953003 
	C747.030090,889.105713 750.603149,886.376892 753.917664,883.363708 
	C755.720520,881.724731 757.084351,879.602783 758.716064,877.716064 
	C758.716064,877.716064 758.714233,877.644043 759.402588,877.805847 
	C767.587585,868.739563 776.224182,860.035278 783.851379,850.521729 
	C795.202698,836.363037 804.022156,820.553406 810.784424,803.715576 
	C813.260620,797.549805 814.567688,790.914612 816.410095,783.992737 
	C816.495117,783.670898 816.580139,783.349060 817.342773,782.613586 
	C817.711548,780.581848 818.080322,778.550049 818.421265,776.006409 
	C818.501587,775.676208 818.581909,775.346008 819.345398,774.799622 
	C819.673889,772.876831 820.002319,770.954041 820.339966,768.319336 
	C820.452759,767.617737 820.565552,766.916199 821.234131,765.858276 
	C821.573669,763.246765 821.913208,760.635254 822.230408,757.254456 
	C822.356445,756.238037 822.482483,755.221680 823.197266,753.838684 
	C823.549316,749.566650 823.901428,745.294556 824.212219,740.096985 
	C824.316284,736.127808 824.420410,732.158569 825.126526,727.833008 
	C825.644470,725.114990 826.612549,722.397400 826.615479,719.678833 
	C826.735840,607.788513 826.769958,495.898163 826.813354,384.007782 
	C826.817932,372.188141 826.930664,360.366241 826.708618,348.550781 
	C826.666077,346.289124 825.287231,344.052582 824.358337,341.203949 
	C824.341125,340.789948 824.323914,340.375977 824.773376,339.451202 
	C822.740479,328.454285 816.905273,319.665131 807.358704,314.307617 
	C797.188904,308.600342 786.331421,304.078094 775.629517,299.367249 
	C751.098938,288.569244 726.507324,277.908356 701.868774,267.359192 
	C698.111938,265.750671 693.972717,265.035309 689.388916,263.839600 
	C688.988647,263.726562 688.588440,263.613495 687.972229,262.861633 
	C687.158142,262.323547 686.414490,261.552643 685.519592,261.281525 
	C664.392639,254.881424 643.272766,248.455139 622.086975,242.254593 
	C618.380005,241.169678 614.383301,241.075012 610.014526,240.549850 
	C609.686218,240.476013 609.357910,240.402191 608.541870,239.721603 
	C606.199707,239.329132 603.857483,238.936676 600.884644,238.548676 
	C600.263733,238.444901 599.642761,238.341141 598.570923,237.594452 
	C595.896729,237.226181 593.222534,236.857925 590.037109,236.527603 
	C589.701782,236.466721 589.366516,236.405838 588.580322,235.769562 
	C586.063416,235.418884 583.546570,235.068207 580.315247,234.746552 
	C579.612854,234.624359 578.910522,234.502167 577.832642,233.816727 
	C574.566650,233.434860 571.300659,233.052994 567.227173,232.690506 
	C565.891235,232.557755 564.555359,232.425003 562.863586,231.706406 
	C559.586060,231.360565 556.308472,231.014725 552.262268,230.700546 
	C551.242676,230.602982 550.223145,230.505432 548.841431,229.808289 
	C543.567566,229.460938 538.293762,229.113602 532.183411,228.798370 
	C530.519958,228.683090 528.856445,228.567810 526.817261,227.862610 
	C525.113525,227.346252 523.411743,226.388092 521.705750,226.380630 
	C500.337799,226.287369 478.968811,226.277832 457.601471,226.431900 
	C455.662903,226.445892 453.733582,227.738556 450.960114,228.578430 
	C448.963226,228.630692 446.966309,228.682953 444.319489,228.244949 
	C439.435211,228.678070 434.167297,226.490799 428.996063,230.529816 
	C427.652008,230.592560 426.307983,230.655319 424.364777,230.217026 
	C421.237366,230.914215 418.109955,231.611404 414.242249,232.462341 
	C412.989044,232.502563 411.735840,232.542786 409.710846,232.211090 
	C407.398895,232.906143 405.086914,233.601181 402.025146,234.471924 
	C401.002350,234.538727 399.979553,234.605515 398.364532,234.210968 
	C395.568634,234.934357 392.772705,235.657730 389.498199,236.541595 
	C389.163696,236.561981 388.829193,236.582367 387.694458,236.216064 
	C385.457123,236.904907 383.219788,237.593750 380.370880,238.444809 
	C379.740662,238.485977 379.110474,238.527161 377.688812,238.221832 
	C375.452393,238.911423 373.216003,239.600998 370.474487,240.434967 
	C370.125610,240.444702 369.776764,240.454453 368.663696,240.113251 
	C366.771088,240.809738 364.878479,241.506210 362.465210,242.347946 
	C362.106384,242.364670 361.747528,242.381393 360.560059,242.048874 
	C349.773743,244.554550 338.822083,246.510910 328.240082,249.695526 
	C312.623840,254.395187 297.229401,259.851013 281.831085,265.243622 
	C277.320099,266.823395 273.116638,269.281250 268.187042,271.539429 
	C267.779694,271.605713 267.372375,271.671997 266.516479,271.326813 
	C265.673828,271.976471 264.831177,272.626129 263.516022,273.482452 
	C263.176514,273.527802 262.837006,273.573151 261.753784,273.275909 
	C249.989395,277.953583 238.049408,282.238647 226.502975,287.403534 
	C210.291885,294.654999 194.392517,302.601105 178.322784,310.171448 
	C167.755737,315.149567 158.464676,321.454620 154.149719,332.972198 
	C153.587738,334.472198 153.910843,336.303802 153.833130,338.696808 
	C153.715195,339.400787 153.597260,340.104767 152.842728,341.122772 
	C152.294769,343.474121 151.290939,345.822113 151.273788,348.177338 
	C151.171829,362.171570 151.338699,376.167419 151.341125,390.162750 
	C151.354172,465.809540 151.345551,541.456299 151.344254,617.103088 
	C151.343643,653.260254 151.304871,689.417542 151.434326,725.574280 
	C151.442230,727.782166 152.781540,729.985413 153.635239,733.057617 
	C153.680283,735.714111 153.725327,738.370605 153.270264,741.641724 
	C153.981903,745.496582 154.693558,749.351501 155.567215,753.959045 
	C155.626068,754.983215 155.684921,756.007324 155.272842,757.591187 
	C155.979187,760.131165 156.685516,762.671143 157.559341,765.904602 
	C157.622940,766.613953 157.686554,767.323242 157.290924,768.518066 
	C157.974701,770.419373 158.658478,772.320618 159.530426,774.815369 
	C159.555862,775.227966 159.581299,775.640625 159.172150,776.598083 
	C159.911575,778.405823 160.651001,780.213501 161.557297,782.499268 
	C161.582352,782.834595 161.607422,783.169983 161.265640,784.204651 
	C161.928024,785.475159 162.590393,786.745605 163.421783,788.512878 
	C163.446396,788.860596 163.471008,789.208374 163.160446,790.332947 
	C163.191467,790.992920 163.058060,791.714111 163.277405,792.304016 
	C170.342560,811.305542 179.000687,829.498657 190.959000,845.966187 
	C192.337540,847.864502 194.367645,849.289673 196.381012,851.183838 
	C196.381012,851.183838 196.510559,851.540100 196.234222,852.235718 
	C198.228607,854.436096 200.222992,856.636536 202.586472,859.304626 
	C203.234772,860.043091 203.883072,860.781616 204.295761,862.214294 
	C204.540375,862.814026 204.631454,863.565613 205.052292,863.991028 
	C213.272049,872.299927 221.511047,880.590271 229.823166,888.806458 
	C230.387985,889.364807 231.561890,889.307007 232.983521,889.803528 
	C233.694656,890.483154 234.405777,891.162842 235.144699,892.524597 
	C235.826706,892.948669 236.508713,893.372803 237.017914,893.997009 
	C237.017914,893.997009 237.201950,893.806458 237.165436,894.490967 
	C244.595230,900.993591 251.934250,907.604553 259.501556,913.943054 
	C262.345184,916.324890 265.718689,918.074097 268.944519,920.066528 
	C268.944519,920.066528 268.892395,920.156738 268.931091,920.835022 
	C275.361420,925.472961 281.791748,930.110901 288.078094,934.966980 
z"/>
<path fill="#FAFAFA" opacity="1.000000" stroke="none" 
	d="
M378.480255,238.568329 
	C379.110474,238.527161 379.740662,238.485977 380.963928,238.536835 
	C383.869537,237.953506 386.182098,237.278122 388.494690,236.602737 
	C388.829193,236.582367 389.163696,236.561981 390.060181,236.632690 
	C393.400360,236.039978 396.178558,235.356155 398.956757,234.672333 
	C399.979553,234.605515 401.002350,234.538727 402.770630,234.533310 
	C405.838287,233.924133 408.160461,233.253555 410.482635,232.582977 
	C411.735840,232.542786 412.989044,232.502563 414.943909,232.558777 
	C418.751709,232.009491 421.857819,231.363785 424.963928,230.718079 
	C426.307983,230.655319 427.652008,230.592560 429.829193,230.623276 
	C435.431366,230.056229 440.200378,229.395721 444.969421,228.735199 
	C446.966309,228.682953 448.963226,228.630692 451.836487,228.669174 
	C458.680847,228.585312 464.647797,228.324646 470.616974,228.254303 
	C482.533417,228.113815 494.451202,228.009720 506.368256,228.024506 
	C513.309998,228.033112 520.251404,228.301193 527.192993,228.452530 
	C528.856445,228.567810 530.519958,228.683090 532.900391,229.020844 
	C538.812805,229.631516 544.008179,230.019699 549.203552,230.407883 
	C550.223145,230.505432 551.242676,230.602982 552.917358,230.949707 
	C556.788147,231.563339 560.003784,231.927795 563.219421,232.292252 
	C564.555359,232.425003 565.891235,232.557755 567.878418,232.966248 
	C571.755859,233.621307 574.981995,234.000626 578.208130,234.379959 
	C578.910522,234.502167 579.612854,234.624359 580.891113,235.014252 
	C583.988342,235.636276 586.509766,235.990616 589.031189,236.344955 
	C589.366516,236.405838 589.701782,236.466721 590.508362,236.774719 
	C593.660339,237.427002 596.341125,237.832184 599.021851,238.237366 
	C599.642761,238.341141 600.263733,238.444901 601.384644,238.829773 
	C604.266357,239.516708 606.647949,239.922531 609.029602,240.328369 
	C609.357910,240.402191 609.686218,240.476013 610.452148,240.842178 
	C611.639587,241.474518 612.359497,241.923813 613.143616,242.138443 
	C629.851868,246.712234 646.592529,251.170120 663.270874,255.849884 
	C671.633789,258.196411 679.885925,260.937683 688.188171,263.500427 
	C688.588440,263.613495 688.988647,263.726562 689.847229,264.199615 
	C703.731140,270.085022 717.233521,275.432220 730.564819,281.176453 
	C752.023376,290.422485 773.347107,299.980682 794.770935,309.307892 
	C806.336914,314.343262 816.188110,321.168457 821.325806,333.280945 
	C822.277893,335.525574 823.310974,337.735840 824.306641,339.961975 
	C824.323914,340.375977 824.341125,340.789948 824.283569,341.943665 
	C824.334351,353.456696 824.578186,364.230194 824.565735,375.003387 
	C824.497314,434.124603 824.329590,493.245697 824.267273,552.366882 
	C824.211487,605.330261 824.239502,658.293823 824.256104,711.257263 
	C824.257874,716.901306 824.430908,722.545349 824.524475,728.189392 
	C824.420410,732.158569 824.316284,736.127808 823.988892,740.848877 
	C823.379883,745.802246 822.994202,750.003784 822.608521,754.205261 
	C822.482483,755.221680 822.356445,756.238037 821.969604,757.895020 
	C821.365295,761.095276 821.021790,763.654907 820.678345,766.214600 
	C820.565552,766.916199 820.452759,767.617737 820.069458,768.878052 
	C819.420044,771.296448 819.041138,773.156128 818.662231,775.015808 
	C818.581909,775.346008 818.501587,775.676208 818.184875,776.469971 
	C817.520691,778.964783 817.092896,780.996033 816.665100,783.027222 
	C816.580139,783.349060 816.495117,783.670898 816.126404,784.439392 
	C815.450317,785.615784 814.920471,786.303894 814.685486,787.081177 
	C807.336975,811.386353 795.559937,833.368347 779.673767,853.114746 
	C772.935181,861.490662 765.715393,869.479370 758.714233,877.644043 
	C758.714233,877.644043 758.716064,877.716064 758.340088,877.729309 
	C752.920898,882.451782 747.877747,887.161011 742.834595,891.870239 
	C742.317322,892.396484 741.800049,892.922668 740.766724,893.619263 
	C739.737854,894.403931 739.225037,895.018250 738.712219,895.632568 
	C738.712219,895.632568 738.687927,895.679565 738.327515,895.740356 
	C727.148071,904.524353 716.308960,913.222839 705.524475,921.988525 
	C702.866394,924.148926 700.385925,926.527771 697.823853,928.806274 
	C697.823792,928.806213 697.981079,929.000732 697.547913,928.916321 
	C694.677368,930.814270 692.239990,932.796570 689.802612,934.778931 
	C689.802673,934.778931 689.961060,934.997620 689.520691,934.878113 
	C641.392761,969.665955 591.240356,1000.653442 539.237488,1028.662109 
	C524.665283,1036.510742 509.779510,1043.777222 495.037567,1051.310669 
	C490.995087,1051.283325 486.952576,1051.255981 482.223938,1050.938232 
	C479.386047,1049.820557 477.125732,1049.199219 475.100708,1048.131714 
	C464.403229,1042.491821 453.555511,1037.095337 443.144348,1030.961670 
	C407.731384,1010.098877 372.451447,989.009460 337.187744,967.894592 
	C329.112457,963.059387 321.305298,957.776428 313.374725,952.699585 
	C313.374725,952.699585 313.327454,952.672363 313.231964,952.326294 
	C304.840363,946.242981 296.544220,940.505615 288.248108,934.768311 
	C288.248108,934.768311 288.078094,934.966980 288.079224,934.531494 
	C281.684387,929.449585 275.288391,924.803162 268.892395,920.156738 
	C268.892395,920.156738 268.944519,920.066528 268.872681,919.749146 
	C262.453339,914.078979 256.164551,908.654419 249.737000,903.399658 
	C245.665604,900.071106 241.387436,896.995483 237.201965,893.806458 
	C237.201950,893.806458 237.017914,893.997009 237.061432,893.585571 
	C236.442245,892.730286 235.779572,892.286377 235.116898,891.842468 
	C234.405777,891.162842 233.694656,890.483154 232.611771,889.351929 
	C227.652863,884.400757 223.052597,879.914429 218.482178,875.397888 
	C213.816650,870.787415 209.180420,866.147217 204.531357,861.520081 
	C203.883072,860.781616 203.234772,860.043091 202.394653,858.721802 
	C200.305405,855.939392 198.407974,853.739746 196.510559,851.540100 
	C196.510559,851.540100 196.381012,851.183838 196.201996,850.709473 
	C185.971619,836.151306 176.971481,821.465759 170.287445,805.444458 
	C168.069870,800.128967 165.762131,794.851135 163.495605,789.556091 
	C163.471008,789.208374 163.446396,788.860596 163.505310,788.031250 
	C162.936707,786.201538 162.284592,784.853455 161.632492,783.505310 
	C161.607422,783.169983 161.582352,782.834595 161.630325,781.971680 
	C161.004486,779.647156 160.305618,777.850159 159.606735,776.053223 
	C159.581299,775.640625 159.555862,775.227966 159.581558,774.158020 
	C159.005188,771.677979 158.377686,769.855286 157.750183,768.032593 
	C157.686554,767.323242 157.622940,766.613953 157.635742,765.168579 
	C157.056030,761.965515 156.399902,759.498474 155.743774,757.031494 
	C155.684921,756.007324 155.626068,754.983215 155.644455,753.156677 
	C155.071259,748.578552 154.420822,744.802856 153.770370,741.027100 
	C153.725327,738.370605 153.680283,735.714111 153.699280,732.159668 
	C153.660629,612.074890 153.556549,492.888092 153.457504,373.701324 
	C153.448395,362.737122 153.471298,351.772949 153.479324,340.808746 
	C153.597260,340.104767 153.715195,339.400787 154.121460,338.136444 
	C157.198318,327.719391 162.689850,319.718445 171.983704,315.269196 
	C194.515244,304.482605 217.235123,294.088226 239.914368,283.612122 
	C247.386475,280.160583 254.966705,276.943054 262.497498,273.618500 
	C262.837006,273.573151 263.176514,273.527802 263.981018,273.530640 
	C265.285675,272.965302 266.125336,272.351776 266.965027,271.738281 
	C267.372375,271.671997 267.779694,271.605713 268.835327,271.575531 
	C293.998932,263.732849 318.508240,255.835159 343.033875,247.988678 
	C349.124908,246.039993 355.269012,244.257172 361.388702,242.398102 
	C361.747528,242.381393 362.106384,242.364670 363.000061,242.428925 
	C365.499207,241.827988 367.463562,241.146088 369.427887,240.464172 
	C369.776764,240.454453 370.125610,240.444702 371.021240,240.536819 
	C373.872070,239.948547 376.176147,239.258438 378.480255,238.568329 
M409.380249,278.914703 
	C378.209839,283.413025 347.857513,291.401459 318.053162,301.319275 
	C278.646210,314.432556 240.503357,330.706940 203.438660,349.449738 
	C201.617081,350.370850 199.695175,352.904388 199.472885,354.873657 
	C198.317184,365.112213 197.022217,375.409576 196.995819,385.689606 
	C196.716766,494.336517 196.576965,602.984070 196.633102,711.631287 
	C196.644958,734.590149 200.841385,757.057007 208.799011,778.554016 
	C222.240158,814.864197 245.521698,844.036743 275.637238,868.060913 
	C316.612579,900.748230 359.633636,930.495544 404.561005,957.439636 
	C430.747986,973.144653 456.634552,989.484802 484.896576,1001.409363 
	C486.996979,1002.295532 489.823944,1002.494690 492.012878,1001.902832 
	C495.649719,1000.919373 499.164856,999.265869 502.520416,997.494995 
	C559.579712,967.384033 614.847534,934.361023 666.472290,895.533630 
	C688.510986,878.958130 710.440430,862.208008 729.623352,842.208923 
	C765.252563,805.063965 780.929749,760.313904 780.422424,709.384949 
	C780.208435,687.900085 779.610535,666.417603 779.545166,644.932983 
	C779.405701,599.106018 779.534546,553.278259 779.489258,507.450958 
	C779.440002,457.634094 779.244385,407.817169 779.330872,358.000641 
	C779.340515,352.442505 777.095764,349.608704 772.270996,347.479187 
	C749.636841,337.489136 727.323669,326.736359 704.461487,317.309509 
	C686.258850,309.803955 667.618896,303.211395 648.820374,297.343353 
	C632.540588,292.261475 615.882812,288.201965 599.176697,284.725708 
	C581.451538,281.037445 563.540100,278.057800 545.588684,275.687103 
	C518.119751,272.059601 490.447418,271.416107 462.818817,273.269653 
	C445.250916,274.448273 427.768463,276.899933 409.380249,278.914703 
z"/>
<path fill="#676767" opacity="1.000000" stroke="none" 
	d="
M153.161026,340.965759 
	C153.471298,351.772949 153.448395,362.737122 153.457504,373.701324 
	C153.556549,492.888092 153.660629,612.074890 153.632339,731.726196 
	C152.781540,729.985413 151.442230,727.782166 151.434326,725.574280 
	C151.304871,689.417542 151.343643,653.260254 151.344254,617.103088 
	C151.345551,541.456299 151.354172,465.809540 151.341125,390.162750 
	C151.338699,376.167419 151.171829,362.171570 151.273788,348.177338 
	C151.290939,345.822113 152.294769,343.474121 153.161026,340.965759 
z"/>
<path fill="#676767" opacity="1.000000" stroke="none" 
	d="
M824.825500,728.011230 
	C824.430908,722.545349 824.257874,716.901306 824.256104,711.257263 
	C824.239502,658.293823 824.211487,605.330261 824.267273,552.366882 
	C824.329590,493.245697 824.497314,434.124603 824.565735,375.003387 
	C824.578186,364.230194 824.334351,353.456696 824.366943,342.243896 
	C825.287231,344.052582 826.666077,346.289124 826.708618,348.550781 
	C826.930664,360.366241 826.817932,372.188141 826.813354,384.007782 
	C826.769958,495.898163 826.735840,607.788513 826.615479,719.678833 
	C826.612549,722.397400 825.644470,725.114990 824.825500,728.011230 
z"/>
<path fill="#676767" opacity="1.000000" stroke="none" 
	d="
M495.316528,1051.532227 
	C509.779510,1043.777222 524.665283,1036.510742 539.237488,1028.662109 
	C591.240356,1000.653442 641.392761,969.665955 689.433655,934.774414 
	C686.060852,938.087341 682.649597,941.853210 678.556213,944.603699 
	C656.438110,959.465027 634.378601,974.435242 611.849426,988.655945 
	C594.046509,999.893372 575.636047,1010.173950 557.414429,1020.739868 
	C547.652832,1026.400146 537.813293,1031.941284 527.838196,1037.213257 
	C518.509888,1042.143311 508.975494,1046.687012 499.475372,1051.284058 
	C498.366028,1051.820801 496.897522,1051.615234 495.316528,1051.532227 
z"/>
<path fill="#676767" opacity="1.000000" stroke="none" 
	d="
M313.310913,953.039001 
	C321.305298,957.776428 329.112457,963.059387 337.187744,967.894592 
	C372.451447,989.009460 407.731384,1010.098877 443.144348,1030.961670 
	C453.555511,1037.095337 464.403229,1042.491821 475.100708,1048.131714 
	C477.125732,1049.199219 479.386047,1049.820557 481.759338,1050.928467 
	C477.868530,1049.976318 473.382202,1049.423584 469.704346,1047.400757 
	C445.054230,1033.843262 420.370941,1020.322998 396.104065,1006.098755 
	C374.817383,993.621216 354.001434,980.333862 333.103027,967.204468 
	C326.281433,962.918762 319.854523,958.004883 313.310913,953.039001 
z"/>
<path fill="#676767" opacity="1.000000" stroke="none" 
	d="
M824.540039,339.706604 
	C823.310974,337.735840 822.277893,335.525574 821.325806,333.280945 
	C816.188110,321.168457 806.336914,314.343262 794.770935,309.307892 
	C773.347107,299.980682 752.023376,290.422485 730.564819,281.176453 
	C717.233521,275.432220 703.731140,270.085022 690.157959,264.233246 
	C693.972717,265.035309 698.111938,265.750671 701.868774,267.359192 
	C726.507324,277.908356 751.098938,288.569244 775.629517,299.367249 
	C786.331421,304.078094 797.188904,308.600342 807.358704,314.307617 
	C816.905273,319.665131 822.740479,328.454285 824.540039,339.706604 
z"/>
<path fill="#676767" opacity="1.000000" stroke="none" 
	d="
M262.125641,273.447205 
	C254.966705,276.943054 247.386475,280.160583 239.914368,283.612122 
	C217.235123,294.088226 194.515244,304.482605 171.983704,315.269196 
	C162.689850,319.718445 157.198318,327.719391 154.116882,337.778931 
	C153.910843,336.303802 153.587738,334.472198 154.149719,332.972198 
	C158.464676,321.454620 167.755737,315.149567 178.322784,310.171448 
	C194.392517,302.601105 210.291885,294.654999 226.502975,287.403534 
	C238.049408,282.238647 249.989395,277.953583 262.125641,273.447205 
z"/>
<path fill="#676767" opacity="1.000000" stroke="none" 
	d="
M759.058472,877.724976 
	C765.715393,869.479370 772.935181,861.490662 779.673767,853.114746 
	C795.559937,833.368347 807.336975,811.386353 814.685486,787.081177 
	C814.920471,786.303894 815.450317,785.615784 816.125366,784.689819 
	C814.567688,790.914612 813.260620,797.549805 810.784424,803.715576 
	C804.022156,820.553406 795.202698,836.363037 783.851379,850.521729 
	C776.224182,860.035278 767.587585,868.739563 759.058472,877.724976 
z"/>
<path fill="#676767" opacity="1.000000" stroke="none" 
	d="
M360.974365,242.223495 
	C355.269012,244.257172 349.124908,246.039993 343.033875,247.988678 
	C318.508240,255.835159 293.998932,263.732849 269.127930,271.474121 
	C273.116638,269.281250 277.320099,266.823395 281.831085,265.243622 
	C297.229401,259.851013 312.623840,254.395187 328.240082,249.695526 
	C338.822083,246.510910 349.773743,244.554550 360.974365,242.223495 
z"/>
<path fill="#676767" opacity="1.000000" stroke="none" 
	d="
M527.005127,228.157562 
	C520.251404,228.301193 513.309998,228.033112 506.368256,228.024506 
	C494.451202,228.009720 482.533417,228.113815 470.616974,228.254303 
	C464.647797,228.324646 458.680847,228.585312 452.256409,228.598663 
	C453.733582,227.738556 455.662903,226.445892 457.601471,226.431900 
	C478.968811,226.277832 500.337799,226.287369 521.705750,226.380630 
	C523.411743,226.388092 525.113525,227.346252 527.005127,228.157562 
z"/>
<path fill="#676767" opacity="1.000000" stroke="none" 
	d="
M688.080200,263.181030 
	C679.885925,260.937683 671.633789,258.196411 663.270874,255.849884 
	C646.592529,251.170120 629.851868,246.712234 613.143616,242.138443 
	C612.359497,241.923813 611.639587,241.474518 610.705078,240.828766 
	C614.383301,241.075012 618.380005,241.169678 622.086975,242.254593 
	C643.272766,248.455139 664.392639,254.881424 685.519592,261.281525 
	C686.414490,261.552643 687.158142,262.323547 688.080200,263.181030 
z"/>
<path fill="#676767" opacity="1.000000" stroke="none" 
	d="
M163.328033,789.944519 
	C165.762131,794.851135 168.069870,800.128967 170.287445,805.444458 
	C176.971481,821.465759 185.971619,836.151306 196.059326,850.584717 
	C194.367645,849.289673 192.337540,847.864502 190.959000,845.966187 
	C179.000687,829.498657 170.342560,811.305542 163.277405,792.304016 
	C163.058060,791.714111 163.191467,790.992920 163.328033,789.944519 
z"/>
<path fill="#676767" opacity="1.000000" stroke="none" 
	d="
M698.180664,928.852356 
	C700.385925,926.527771 702.866394,924.148926 705.524475,921.988525 
	C716.308960,913.222839 727.148071,904.524353 738.304321,895.753052 
	C737.119446,897.515503 735.848877,899.642517 734.034180,901.085205 
	C722.268005,910.439331 710.383362,919.644470 698.180664,928.852356 
z"/>
<path fill="#676767" opacity="1.000000" stroke="none" 
	d="
M237.183701,894.148682 
	C241.387436,896.995483 245.665604,900.071106 249.737000,903.399658 
	C256.164551,908.654419 262.453339,914.078979 268.825745,919.771729 
	C265.718689,918.074097 262.345184,916.324890 259.501556,913.943054 
	C251.934250,907.604553 244.595230,900.993591 237.183701,894.148682 
z"/>
<path fill="#676767" opacity="1.000000" stroke="none" 
	d="
M204.413559,861.867188 
	C209.180420,866.147217 213.816650,870.787415 218.482178,875.397888 
	C223.052597,879.914429 227.652863,884.400757 232.346268,889.218079 
	C231.561890,889.307007 230.387985,889.364807 229.823166,888.806458 
	C221.511047,880.590271 213.272049,872.299927 205.052292,863.991028 
	C204.631454,863.565613 204.540375,862.814026 204.413559,861.867188 
z"/>
<path fill="#676767" opacity="1.000000" stroke="none" 
	d="
M288.222839,935.113892 
	C296.544220,940.505615 304.840363,946.242981 313.220215,952.301758 
	C311.384064,951.782837 309.240753,951.250366 307.583588,950.047974 
	C301.038757,945.299255 294.646454,940.340393 288.222839,935.113892 
z"/>
<path fill="#676767" opacity="1.000000" stroke="none" 
	d="
M268.911743,920.495850 
	C275.288391,924.803162 281.684387,929.449585 288.151245,934.422485 
	C281.791748,930.110901 275.361420,925.472961 268.911743,920.495850 
z"/>
<path fill="#676767" opacity="1.000000" stroke="none" 
	d="
M743.199707,891.911621 
	C747.877747,887.161011 752.920898,882.451782 758.305115,877.720581 
	C757.084351,879.602783 755.720520,881.724731 753.917664,883.363708 
	C750.603149,886.376892 747.030090,889.105713 743.199707,891.911621 
z"/>
<path fill="#676767" opacity="1.000000" stroke="none" 
	d="
M549.022461,230.108093 
	C544.008179,230.019699 538.812805,229.631516 533.318665,229.004791 
	C538.293762,229.113602 543.567566,229.460938 549.022461,230.108093 
z"/>
<path fill="#676767" opacity="1.000000" stroke="none" 
	d="
M444.644470,228.490082 
	C440.200378,229.395721 435.431366,230.056229 430.225098,230.544586 
	C434.167297,226.490799 439.435211,228.678070 444.644470,228.490082 
z"/>
<path fill="#676767" opacity="1.000000" stroke="none" 
	d="
M822.902832,754.021973 
	C822.994202,750.003784 823.379883,745.802246 824.009521,741.311646 
	C823.901428,745.294556 823.549316,749.566650 822.902832,754.021973 
z"/>
<path fill="#676767" opacity="1.000000" stroke="none" 
	d="
M153.520325,741.334412 
	C154.420822,744.802856 155.071259,748.578552 155.563446,752.780334 
	C154.693558,749.351501 153.981903,745.496582 153.520325,741.334412 
z"/>
<path fill="#676767" opacity="1.000000" stroke="none" 
	d="
M424.664368,230.467560 
	C421.857819,231.363785 418.751709,232.009491 415.314087,232.481903 
	C418.109955,231.611404 421.237366,230.914215 424.664368,230.467560 
z"/>
<path fill="#676767" opacity="1.000000" stroke="none" 
	d="
M563.041504,231.999329 
	C560.003784,231.927795 556.788147,231.563339 553.301758,230.933868 
	C556.308472,231.014725 559.586060,231.360565 563.041504,231.999329 
z"/>
<path fill="#676767" opacity="1.000000" stroke="none" 
	d="
M578.020386,234.098343 
	C574.981995,234.000626 571.755859,233.621307 568.282227,232.956558 
	C571.300659,233.052994 574.566650,233.434860 578.020386,234.098343 
z"/>
<path fill="#676767" opacity="1.000000" stroke="none" 
	d="
M398.660645,234.441650 
	C396.178558,235.356155 393.400360,236.039978 390.299500,236.552444 
	C392.772705,235.657730 395.568634,234.934357 398.660645,234.441650 
z"/>
<path fill="#676767" opacity="1.000000" stroke="none" 
	d="
M155.508301,757.311340 
	C156.399902,759.498474 157.056030,761.965515 157.552002,764.821777 
	C156.685516,762.671143 155.979187,760.131165 155.508301,757.311340 
z"/>
<path fill="#676767" opacity="1.000000" stroke="none" 
	d="
M598.796387,237.915909 
	C596.341125,237.832184 593.660339,237.427002 590.763977,236.755737 
	C593.222534,236.857925 595.896729,237.226181 598.796387,237.915909 
z"/>
<path fill="#676767" opacity="1.000000" stroke="none" 
	d="
M588.805786,236.057251 
	C586.509766,235.990616 583.988342,235.636276 581.248291,234.999756 
	C583.546570,235.068207 586.063416,235.418884 588.805786,236.057251 
z"/>
<path fill="#676767" opacity="1.000000" stroke="none" 
	d="
M820.956177,766.036438 
	C821.021790,763.654907 821.365295,761.095276 821.980774,758.279663 
	C821.913208,760.635254 821.573669,763.246765 820.956177,766.036438 
z"/>
<path fill="#676767" opacity="1.000000" stroke="none" 
	d="
M690.161255,934.860596 
	C692.239990,932.796570 694.677368,930.814270 697.463928,928.822998 
	C695.382019,930.856812 692.950989,932.899536 690.161255,934.860596 
z"/>
<path fill="#676767" opacity="1.000000" stroke="none" 
	d="
M410.096741,232.397034 
	C408.160461,233.253555 405.838287,233.924133 403.145538,234.445465 
	C405.086914,233.601181 407.398895,232.906143 410.096741,232.397034 
z"/>
<path fill="#676767" opacity="1.000000" stroke="none" 
	d="
M196.372375,851.887939 
	C198.407974,853.739746 200.305405,855.939392 202.210114,858.487976 
	C200.222992,856.636536 198.228607,854.436096 196.372375,851.887939 
z"/>
<path fill="#676767" opacity="1.000000" stroke="none" 
	d="
M608.785767,240.024994 
	C606.647949,239.922531 604.266357,239.516708 601.700012,238.827545 
	C603.857483,238.936676 606.199707,239.329132 608.785767,240.024994 
z"/>
<path fill="#676767" opacity="1.000000" stroke="none" 
	d="
M378.084534,238.395081 
	C376.176147,239.258438 373.872070,239.948547 371.273773,240.464630 
	C373.216003,239.600998 375.452393,238.911423 378.084534,238.395081 
z"/>
<path fill="#676767" opacity="1.000000" stroke="none" 
	d="
M388.094574,236.409393 
	C386.182098,237.278122 383.869537,237.953506 381.269714,238.455719 
	C383.219788,237.593750 385.457123,236.904907 388.094574,236.409393 
z"/>
<path fill="#676767" opacity="1.000000" stroke="none" 
	d="
M819.003784,774.907715 
	C819.041138,773.156128 819.420044,771.296448 820.064819,769.234009 
	C820.002319,770.954041 819.673889,772.876831 819.003784,774.907715 
z"/>
<path fill="#676767" opacity="1.000000" stroke="none" 
	d="
M817.003906,782.820435 
	C817.092896,780.996033 817.520691,778.964783 818.198792,776.725952 
	C818.080322,778.550049 817.711548,780.581848 817.003906,782.820435 
z"/>
<path fill="#676767" opacity="1.000000" stroke="none" 
	d="
M159.389450,776.325684 
	C160.305618,777.850159 161.004486,779.647156 161.546890,781.732666 
	C160.651001,780.213501 159.911575,778.405823 159.389450,776.325684 
z"/>
<path fill="#676767" opacity="1.000000" stroke="none" 
	d="
M157.520554,768.275330 
	C158.377686,769.855286 159.005188,771.677979 159.487473,773.861328 
	C158.658478,772.320618 157.974701,770.419373 157.520554,768.275330 
z"/>
<path fill="#676767" opacity="1.000000" stroke="none" 
	d="
M369.045776,240.288712 
	C367.463562,241.146088 365.499207,241.827988 363.260376,242.356293 
	C364.878479,241.506210 366.771088,240.809738 369.045776,240.288712 
z"/>
<path fill="#676767" opacity="1.000000" stroke="none" 
	d="
M161.449066,783.854980 
	C162.284592,784.853455 162.936707,786.201538 163.420807,787.782898 
	C162.590393,786.745605 161.928024,785.475159 161.449066,783.854980 
z"/>
<path fill="#676767" opacity="1.000000" stroke="none" 
	d="
M266.740753,271.532532 
	C266.125336,272.351776 265.285675,272.965302 264.217255,273.427307 
	C264.831177,272.626129 265.673828,271.976471 266.740753,271.532532 
z"/>
<path fill="#676767" opacity="1.000000" stroke="none" 
	d="
M739.051758,895.684021 
	C739.225037,895.018250 739.737854,894.403931 740.567017,893.813843 
	C740.386047,894.470581 739.888672,895.103027 739.051758,895.684021 
z"/>
<path fill="#676767" opacity="1.000000" stroke="none" 
	d="
M235.130798,892.183533 
	C235.779572,892.286377 236.442245,892.730286 237.147827,893.485535 
	C236.508713,893.372803 235.826706,892.948669 235.130798,892.183533 
z"/>
<path fill="#1C1C1C" opacity="1.000000" stroke="none" 
	d="
M409.813965,278.847717 
	C427.768463,276.899933 445.250916,274.448273 462.818817,273.269653 
	C490.447418,271.416107 518.119751,272.059601 545.588684,275.687103 
	C563.540100,278.057800 581.451538,281.037445 599.176697,284.725708 
	C615.882812,288.201965 632.540588,292.261475 648.820374,297.343353 
	C667.618896,303.211395 686.258850,309.803955 704.461487,317.309509 
	C727.323669,326.736359 749.636841,337.489136 772.270996,347.479187 
	C777.095764,349.608704 779.340515,352.442505 779.330872,358.000641 
	C779.244385,407.817169 779.440002,457.634094 779.489258,507.450958 
	C779.534546,553.278259 779.405701,599.106018 779.545166,644.932983 
	C779.610535,666.417603 780.208435,687.900085 780.422424,709.384949 
	C780.929749,760.313904 765.252563,805.063965 729.623352,842.208923 
	C710.440430,862.208008 688.510986,878.958130 666.472290,895.533630 
	C614.847534,934.361023 559.579712,967.384033 502.520416,997.494995 
	C499.164856,999.265869 495.649719,1000.919373 492.012878,1001.902832 
	C489.823944,1002.494690 486.996979,1002.295532 484.896576,1001.409363 
	C456.634552,989.484802 430.747986,973.144653 404.561005,957.439636 
	C359.633636,930.495544 316.612579,900.748230 275.637238,868.060913 
	C245.521698,844.036743 222.240158,814.864197 208.799011,778.554016 
	C200.841385,757.057007 196.644958,734.590149 196.633102,711.631287 
	C196.576965,602.984070 196.716766,494.336517 196.995819,385.689606 
	C197.022217,375.409576 198.317184,365.112213 199.472885,354.873657 
	C199.695175,352.904388 201.617081,350.370850 203.438660,349.449738 
	C240.503357,330.706940 278.646210,314.432556 318.053162,301.319275 
	C347.857513,291.401459 378.209839,283.413025 409.813965,278.847717 
M286.998779,811.000000 
	C286.998779,811.000000 286.809479,811.195618 286.890656,811.807190 
	C287.516998,812.278870 288.143341,812.750549 288.963501,813.006042 
	C288.963501,813.006042 288.784546,813.234070 288.892761,813.836121 
	C289.512421,814.302917 290.132080,814.769653 290.925781,815.020203 
	C290.925781,815.020203 290.774384,815.252563 290.898102,815.850525 
	C291.523499,816.307068 292.148926,816.763611 292.955017,817.000000 
	C292.955017,817.000000 292.789551,817.230774 292.908173,817.828369 
	C293.522644,818.297546 294.137115,818.766724 294.935791,819.016479 
	C294.935791,819.016479 294.772186,819.251343 294.862366,819.876709 
	C295.526581,820.303711 296.190796,820.730652 296.989319,820.996399 
	C296.989319,820.996399 296.847565,821.152771 296.983032,821.811401 
	C299.246674,823.615967 301.510315,825.420532 303.993866,827.001465 
	C303.993866,827.001465 303.779999,827.230408 303.820496,827.909668 
	C310.506012,833.335388 317.191528,838.761108 324.112854,844.467529 
	C324.112854,844.467529 324.469696,844.551575 324.744568,845.154114 
	C328.780609,848.155701 332.816650,851.157349 336.992249,853.997559 
	C336.992249,853.997559 336.845703,854.153870 336.986572,854.812744 
	C342.714722,858.777100 348.442902,862.741455 354.161926,866.835510 
	C354.161926,866.835510 354.291626,866.826294 354.330414,867.497070 
	C373.668030,879.984314 392.693878,892.992737 412.436768,904.802490 
	C429.873840,915.233032 448.110413,924.327148 466.279449,934.255249 
	C466.279449,934.255249 466.652924,934.294006 466.998047,934.879456 
	C472.008789,936.646606 477.019562,938.413696 482.542694,940.340027 
	C482.898285,940.341431 483.253876,940.342834 484.059998,940.955933 
	C487.497955,940.746460 490.935913,940.536926 494.914856,940.395447 
	C495.268738,940.322632 495.622620,940.249817 496.540253,940.509460 
	C500.854126,938.496155 505.167999,936.482849 509.837250,934.406555 
	C509.837250,934.406555 510.097443,934.156494 510.771790,934.190674 
	C511.946045,932.786438 513.120300,931.382141 514.538086,929.306396 
	C514.509705,928.358826 514.481384,927.411194 514.950684,926.111023 
	C514.790833,924.582886 514.631042,923.054688 514.601990,921.019775 
	C514.556885,920.502319 514.511780,919.984924 514.972412,918.895752 
	C515.054871,916.404358 515.209351,913.912964 515.209534,911.421570 
	C515.225098,741.375427 515.228210,571.329285 515.232605,401.283112 
	C515.232666,398.784943 515.267822,396.286255 515.228455,393.788727 
	C515.180115,390.720825 515.989807,389.109497 519.663940,389.901489 
	C522.344482,390.479370 525.229370,390.109497 528.783081,390.381378 
	C530.353088,390.433533 531.923096,390.485718 533.968811,391.038574 
	C536.652222,391.400757 539.335693,391.762939 542.709229,392.302277 
	C543.655334,392.347412 544.601501,392.392548 546.027832,392.957642 
	C549.366516,393.396210 552.705261,393.834778 556.528259,394.437897 
	C556.866943,394.436340 557.205566,394.434784 557.941956,394.993958 
	C560.642273,395.417206 563.342590,395.840454 566.522400,396.437012 
	C566.859985,396.439301 567.197632,396.441620 567.929688,397.047241 
	C576.575256,399.395172 585.216064,401.760681 593.867249,404.087708 
	C622.333740,411.744812 649.102966,423.601990 675.738342,436.050873 
	C686.074890,440.881989 688.463562,447.613312 688.348877,457.924316 
	C687.848511,502.893524 687.858459,547.868713 687.745789,592.841858 
	C687.650574,630.820984 687.786804,668.801331 687.509888,706.778931 
	C687.422302,718.798767 685.517212,730.718018 680.095398,741.609680 
	C676.126770,749.582092 671.297424,757.126038 666.997559,764.997559 
	C666.997559,764.997559 666.859436,764.853271 666.240540,764.933960 
	C665.809082,765.610840 665.377625,766.287659 664.464172,767.370117 
	C663.306091,768.574097 662.148071,769.778076 660.336609,771.049805 
	C659.608765,772.067078 658.880920,773.084412 658.066589,774.066650 
	C658.066589,774.066650 658.099548,774.153992 657.450684,774.138489 
	C656.609314,775.070557 655.768005,776.002625 654.996460,777.000549 
	C654.996460,777.000549 654.936707,776.926208 654.265503,776.958008 
	C653.119324,778.249756 651.973145,779.541504 651.000000,780.997559 
	C651.000000,780.997559 650.832336,780.827515 650.138550,780.861572 
	C642.475098,787.598938 634.811707,794.336304 626.702026,801.289185 
	C626.408691,801.454163 626.165222,801.674377 625.277893,801.968872 
	C623.434753,803.584900 621.591553,805.200989 619.387268,807.055603 
	C619.387268,807.055603 619.163330,807.425903 618.490479,807.354370 
	C615.949219,809.525391 613.407959,811.696411 610.982849,814.005798 
	C610.982849,814.005798 610.876221,813.862000 610.176147,813.873535 
	C603.551819,819.310791 596.927551,824.748108 590.166016,830.176758 
	C590.166016,830.176758 590.174561,830.313965 589.488159,830.276978 
	C587.207031,832.092041 584.925903,833.907104 582.305969,835.929016 
	C582.305969,835.929016 582.121033,836.280334 581.420532,836.248108 
	C576.851135,839.227600 572.232422,842.134644 567.726379,845.207153 
	C563.271545,848.244751 558.930481,851.449280 554.186829,854.636841 
	C554.186829,854.636841 553.934204,854.889099 553.213196,854.858948 
	C546.198669,858.850464 545.856873,859.499146 547.260010,866.633789 
	C547.291321,867.107788 547.322693,867.581726 546.847656,868.685120 
	C546.771057,881.831665 546.671509,894.978149 546.641357,908.124817 
	C546.636536,910.213135 546.352173,913.014221 550.630005,910.948059 
	C551.049194,910.867310 551.468323,910.786499 552.626526,910.957764 
	C564.231079,904.438965 575.835632,897.920166 587.800842,891.362000 
	C587.800842,891.362000 588.072998,891.122192 588.803833,891.153748 
	C593.039856,888.555847 597.394836,886.131409 601.487549,883.324463 
	C610.317810,877.268311 619.013306,871.015686 627.862305,864.865051 
	C627.862305,864.865051 627.860596,864.764404 628.561157,864.826599 
	C631.408447,862.583740 634.255737,860.340881 637.018372,857.994080 
	C637.018372,857.994080 637.090027,858.105652 637.800842,858.156555 
	C641.499512,855.083252 645.198120,852.010010 649.360474,848.775879 
	C649.675659,848.651733 649.927124,848.448669 650.816650,848.145874 
	C653.498779,845.732666 656.180908,843.319397 658.946228,840.959229 
	C658.946228,840.959229 658.912598,840.866455 659.564941,840.904175 
	C660.468750,840.041931 661.372620,839.179688 662.165405,838.174927 
	C662.165405,838.174927 662.315552,838.275269 662.992554,838.185974 
	C667.747314,833.855103 672.502136,829.524231 677.776611,824.967224 
	C678.139648,824.537292 678.502686,824.107422 679.535217,823.756287 
	C686.767212,816.249634 693.999146,808.742920 701.006775,801.071899 
	C701.006775,801.071899 701.244141,801.215759 701.829773,801.040161 
	C702.260620,800.396667 702.691467,799.753235 702.996277,799.011475 
	C702.996277,799.011475 703.115662,799.119507 703.752258,798.925476 
	C705.542175,796.318787 707.332092,793.712036 708.993042,791.022949 
	C708.993042,791.022949 709.116516,791.116943 709.737061,790.884766 
	C719.000305,778.747864 726.207214,765.550232 730.665833,750.223022 
	C730.702087,749.803955 730.738281,749.384827 731.349487,748.539978 
	C731.718567,746.965027 732.087585,745.390137 732.669556,743.219116 
	C732.687500,742.799438 732.705505,742.379700 733.246582,741.457520 
	C733.623169,739.573425 733.999756,737.689331 734.578979,735.205078 
	C734.593506,734.784912 734.608032,734.364746 735.138367,733.401123 
	C735.533936,730.533447 735.929504,727.665771 736.528076,724.010620 
	C736.578247,722.658142 736.628357,721.305664 737.146057,719.341614 
	C737.557556,686.831116 737.969055,654.320618 738.536865,620.911133 
	C738.548523,560.326355 738.561951,499.741638 738.559692,439.156891 
	C738.559692,437.834961 738.379517,436.513062 738.583679,434.443939 
	C737.963074,432.312866 737.342407,430.181763 736.743774,427.321686 
	C736.588562,426.613373 736.433350,425.905090 736.544678,424.512115 
	C732.598877,412.702850 724.736572,403.896790 713.823547,398.646820 
	C692.197571,388.243164 670.232544,378.529602 648.250427,368.889313 
	C641.359863,365.867401 633.965759,363.993622 626.213684,361.361176 
	C625.794189,361.337494 625.374634,361.313812 624.528198,360.711395 
	C620.955139,359.665009 617.382019,358.618622 613.217407,357.349823 
	C612.798645,357.319183 612.379822,357.288544 611.546814,356.679230 
	C609.969177,356.305298 608.391479,355.931396 606.219482,355.338287 
	C605.800354,355.303741 605.381226,355.269226 604.585205,354.626373 
	C602.990112,354.288818 601.395020,353.951263 599.213318,353.375061 
	C598.794617,353.341003 598.375854,353.306976 597.542236,352.695129 
	C595.955322,352.381714 594.368408,352.068298 592.100647,351.514984 
	C591.384094,351.448486 590.667603,351.381989 589.610474,350.770935 
	C588.062561,350.438141 586.514709,350.105316 584.365601,349.590759 
	C583.740906,349.562317 583.116272,349.533905 582.102478,348.980347 
	C580.059143,348.588440 578.015808,348.196533 575.304626,347.590454 
	C574.374207,347.544189 573.443726,347.497955 572.109741,346.937927 
	C570.061523,346.554535 568.013306,346.171143 565.283142,345.625092 
	C564.351624,345.589081 563.420105,345.553070 562.084290,344.947144 
	C559.042236,344.545349 556.000244,344.143555 552.353699,343.563171 
	C551.726440,343.554535 551.099121,343.545929 550.016785,342.987152 
	C546.669434,342.609100 543.322021,342.231049 539.228149,341.694519 
	C537.960266,341.664032 536.692322,341.633514 534.884399,341.063995 
	C533.088440,340.744720 531.293457,340.154358 529.496460,340.148468 
	C513.236572,340.095093 496.975983,340.102264 480.716614,340.223907 
	C478.989899,340.236847 477.269531,341.095825 475.030273,341.429382 
	C474.503296,341.473877 473.976318,341.518402 472.949646,341.057983 
	C471.151337,340.960358 469.294373,340.546844 467.573547,340.866394 
	C466.230743,341.115753 465.057068,342.276062 463.668518,343.956055 
	C463.660309,489.707794 463.648285,635.459534 463.646973,781.211304 
	C463.646698,812.026794 463.685944,842.842285 463.041718,874.047913 
	C459.373718,872.391479 455.600494,870.932007 452.058472,869.039795 
	C443.246124,864.332092 434.539154,859.427185 425.360626,854.271362 
	C425.191040,854.209595 425.021423,854.147827 424.787140,853.420532 
	C416.058289,847.804382 407.345551,842.163025 398.584900,836.596863 
	C397.107330,835.658081 395.423462,835.044067 393.843536,834.157532 
	C393.843536,834.157532 393.721436,834.170532 393.671814,833.501160 
	C388.848419,830.264709 384.025024,827.028259 379.004883,824.000183 
	C379.004883,824.000183 379.197449,823.789001 379.013214,823.151062 
	C371.643250,817.836914 364.273254,812.522827 356.720032,806.873840 
	C356.720032,806.873840 356.387817,806.685913 356.225891,806.024597 
	C354.219116,804.612061 352.212341,803.199585 350.000000,802.000000 
	C350.000000,802.000000 350.204193,801.786194 350.125763,801.117493 
	C342.834015,794.998291 335.542267,788.879150 328.081604,782.980469 
	C328.081604,782.980469 328.227081,782.744080 328.090149,782.154175 
	C327.488037,781.681702 326.885956,781.209229 326.130920,780.920471 
	C326.130920,780.920471 326.248718,780.712463 326.092072,780.058594 
	C324.009155,778.159668 321.926239,776.260803 319.578674,773.783508 
	C318.744843,772.840820 317.911041,771.898071 317.060333,770.253418 
	C315.187866,768.009644 313.315369,765.765930 311.370422,763.173645 
	C311.370422,763.173645 311.102020,762.939758 311.154419,762.252197 
	C309.933838,760.667969 308.713287,759.083679 307.411957,757.148987 
	C307.411957,757.148987 307.139313,756.914490 307.167084,756.179932 
	C296.520203,737.842041 290.572174,718.065186 290.499115,696.875427 
	C290.291809,636.746216 290.402588,576.615723 290.477509,516.485840 
	C290.505920,493.679291 290.852600,470.873108 290.869202,448.066589 
	C290.872070,444.119324 292.591125,441.999969 295.871826,440.328552 
	C300.123260,438.162598 304.203796,435.661194 308.732574,433.287872 
	C308.732574,433.287872 309.041931,433.075775 309.791840,433.180786 
	C316.177704,430.025574 322.563568,426.870361 329.589752,423.668915 
	C329.988037,423.520172 330.386292,423.371429 331.466125,423.446716 
	C351.736816,416.405304 372.007111,409.362762 392.278442,402.323212 
	C397.992249,400.338959 403.709045,398.363251 409.948090,396.425323 
	C410.289612,396.353333 410.631134,396.281372 411.506134,396.569122 
	C413.470520,395.832428 415.434937,395.095764 417.939087,394.389404 
	C418.287201,394.302856 418.635284,394.216309 419.499329,394.415680 
	C421.150726,393.754547 422.802155,393.093445 424.974854,392.466736 
	C425.308624,392.376404 425.642426,392.286102 426.565704,392.452271 
	C430.279999,392.565857 431.404663,390.490540 431.340454,387.109436 
	C431.236847,381.654999 431.404327,376.195221 431.290894,370.741150 
	C431.168365,364.848419 430.854736,358.959686 430.743134,352.363678 
	C430.705078,351.889893 430.667053,351.416138 431.098175,350.379242 
	C431.618805,343.101501 431.253845,342.729523 424.046661,343.989349 
	C422.496490,344.260315 421.029449,345.006836 418.739929,345.482086 
	C417.167664,345.589386 415.595428,345.696686 413.436218,345.462097 
	C410.807648,346.165161 408.179047,346.868225 405.032043,347.518677 
	C404.697052,347.601227 404.362061,347.683777 403.468964,347.452026 
	C401.478363,348.129669 399.487793,348.807281 396.790863,349.453033 
	C395.863617,349.594421 394.936401,349.735840 393.530609,349.553955 
	C392.370941,350.124298 391.211273,350.694641 389.323486,351.271912 
	C388.616119,351.432312 387.908752,351.592712 386.541229,351.451477 
	C385.051056,352.097443 383.560883,352.743439 381.429718,353.363647 
	C381.018127,353.471405 380.606506,353.579163 379.467316,353.377289 
	C375.991302,354.654510 372.515320,355.931702 368.400299,357.209595 
	C367.991669,357.323486 367.583069,357.437347 366.430267,357.317688 
	C340.606628,367.243408 314.736389,377.050720 288.993103,387.180603 
	C282.788574,389.622070 277.004578,393.132111 270.389435,396.243408 
	C269.997559,396.412781 269.605682,396.582184 268.555145,396.572601 
	C263.740204,399.784912 258.483307,402.503387 254.213470,406.324768 
	C247.735931,412.121979 242.854172,419.199890 241.444733,428.799042 
	C241.424683,429.218445 241.404633,429.637848 240.856857,430.599915 
	C240.493103,434.470154 240.129364,438.340363 239.586197,442.995575 
	C239.622040,444.600037 239.657883,446.204529 239.369324,448.719177 
	C239.485382,481.214325 239.666946,513.709412 239.702484,546.204590 
	C239.758606,597.536987 239.682434,648.869507 239.784592,700.201782 
	C239.792374,704.117920 240.769043,708.032043 241.226532,712.788391 
	C241.370117,714.464233 241.513718,716.140076 241.327026,718.612610 
	C241.978226,721.391113 242.629410,724.169678 243.246445,727.727417 
	C243.387543,728.754333 243.528625,729.781189 243.391327,731.516113 
	C244.018326,733.327820 244.645340,735.139526 245.239502,737.590698 
	C245.338837,738.003540 245.438156,738.416382 245.289948,739.593201 
	C249.289261,750.271790 252.554382,761.307190 257.516937,771.517639 
	C261.588989,779.895813 267.679565,787.292908 273.005371,795.016052 
	C273.005371,795.016052 272.870270,795.115417 272.880432,795.791748 
	C273.962952,796.796326 275.045441,797.800964 276.101227,798.883911 
	C276.101227,798.883911 276.183960,798.886719 276.110809,799.587891 
	C278.365143,802.102478 280.619446,804.617065 283.000153,807.005615 
	C283.000153,807.005615 282.866119,807.122864 282.874573,807.749084 
	C283.492645,808.249084 284.110748,808.749146 284.913177,809.068054 
	C284.913177,809.068054 284.756836,809.273804 284.872803,809.876892 
	C285.517731,810.315979 286.162659,810.755005 286.998779,811.000000 
z"/>
<path fill="#FBFBFB" opacity="1.000000" stroke="none" 
	d="
M514.453003,926.463623 
	C514.481384,927.411194 514.509705,928.358826 514.063965,929.687256 
	C512.425720,931.430847 511.261566,932.793640 510.097412,934.156494 
	C510.097443,934.156494 509.837250,934.406555 509.292236,934.307251 
	C504.490356,936.197632 500.233429,938.187317 495.976501,940.177002 
	C495.622620,940.249817 495.268738,940.322632 494.181824,940.181763 
	C490.169037,940.093506 486.889252,940.218933 483.609467,940.344238 
	C483.253876,940.342834 482.898285,940.341431 482.056580,939.980469 
	C476.597961,937.845337 471.625427,936.069702 466.652893,934.294067 
	C466.652924,934.294006 466.279449,934.255249 466.106873,933.781555 
	C461.834717,930.893005 457.818390,928.321777 453.622131,926.088623 
	C424.930450,910.819641 396.903503,894.443787 369.887909,876.350159 
	C364.831207,872.963440 359.497498,869.990295 354.291626,866.826294 
	C354.291626,866.826294 354.161926,866.835510 354.130249,866.435303 
	C348.347626,862.074707 342.596649,858.114319 336.845703,854.153931 
	C336.845703,854.153870 336.992249,853.997559 336.941223,853.727051 
	C332.750061,850.488220 328.609894,847.519897 324.469696,844.551575 
	C324.469696,844.551575 324.112854,844.467529 324.000000,843.979980 
	C322.023773,841.648071 320.317169,839.603088 318.265350,837.999756 
	C313.525848,834.296143 308.618988,830.806702 303.779968,827.230408 
	C303.779999,827.230408 303.993866,827.001465 303.928711,826.766174 
	C301.524872,824.738220 299.186218,822.945496 296.847565,821.152771 
	C296.847565,821.152771 296.989319,820.996399 296.923279,820.734985 
	C296.162201,820.066162 295.467194,819.658752 294.772186,819.251343 
	C294.772186,819.251343 294.935791,819.016479 294.861755,818.783813 
	C294.121643,818.111023 293.455597,817.670898 292.789551,817.230774 
	C292.789551,817.230774 292.955017,817.000000 292.868103,816.767212 
	C292.112274,816.107117 291.443298,815.679871 290.774353,815.252563 
	C290.774384,815.252563 290.925781,815.020203 290.854218,814.784180 
	C290.116638,814.110046 289.450592,813.672058 288.784546,813.234070 
	C288.784546,813.234070 288.963501,813.006042 288.887024,812.770020 
	C288.143524,812.087891 287.476532,811.641724 286.809509,811.195557 
	C286.809479,811.195618 286.998779,811.000000 286.926239,810.751709 
	C286.154755,810.093567 285.455780,809.683716 284.756836,809.273804 
	C284.756836,809.273804 284.913177,809.068054 284.858398,808.816040 
	C284.157806,808.083618 283.511963,807.603271 282.866089,807.122864 
	C282.866119,807.122864 283.000153,807.005615 282.985321,806.715759 
	C280.708313,803.912842 278.446136,801.399780 276.183960,798.886719 
	C276.183960,798.886719 276.101227,798.883911 276.113312,798.501343 
	C275.040344,797.117615 273.955292,796.116516 272.870270,795.115417 
	C272.870270,795.115417 273.005371,795.016052 273.016144,794.706848 
	C272.651245,793.492065 272.449860,792.453064 271.874023,791.700684 
	C261.786194,778.519043 254.590561,763.887207 249.613998,748.086121 
	C248.607239,744.889587 246.914139,741.909241 245.537476,738.829224 
	C245.438156,738.416382 245.338837,738.003540 245.485962,737.026001 
	C245.044846,734.576843 244.357269,732.692505 243.669708,730.808105 
	C243.528625,729.781189 243.387543,728.754333 243.501984,727.053833 
	C243.057449,723.525513 242.357376,720.670715 241.657288,717.815918 
	C241.513718,716.140076 241.370117,714.464233 241.510635,712.043579 
	C241.863770,710.638611 241.996246,709.978210 241.992783,709.318481 
	C241.682083,650.198181 241.282913,591.078125 241.075516,531.957520 
	C240.980881,504.981140 241.282700,478.003387 241.303040,451.026215 
	C241.303848,449.954224 240.254028,448.881409 239.693726,447.808990 
	C239.657883,446.204529 239.622040,444.600037 239.954163,442.405884 
	C240.676300,437.896515 241.030441,433.976898 241.384598,430.057251 
	C241.404633,429.637848 241.424683,429.218445 241.868484,428.384155 
	C242.709808,427.462860 243.354187,427.018219 243.511536,426.440857 
	C246.805191,414.354889 255.167252,406.485291 265.280731,400.018829 
	C266.705597,399.107819 267.908264,397.849274 269.213776,396.751587 
	C269.605682,396.582184 269.997559,396.412781 270.927124,396.417114 
	C273.876770,395.620392 276.347961,394.774414 278.691681,393.660400 
	C304.651367,381.321167 331.192261,370.451752 358.582581,361.676819 
	C361.579529,360.716705 364.316772,358.946014 367.174469,357.551239 
	C367.583069,357.437347 367.991669,357.323486 368.970825,357.448303 
	C373.092529,356.353638 376.643738,355.020294 380.194916,353.686951 
	C380.606506,353.579163 381.018127,353.471405 381.985046,353.586456 
	C384.094055,353.123901 385.647736,352.438538 387.201385,351.753174 
	C387.908752,351.592712 388.616119,351.432312 389.922821,351.499939 
	C391.684479,351.111084 392.846832,350.494171 394.009155,349.877228 
	C394.936401,349.735840 395.863617,349.594421 397.538361,349.644043 
	C400.199585,349.145447 402.113342,348.455872 404.027069,347.766296 
	C404.362061,347.683777 404.697052,347.601227 405.711792,347.722961 
	C408.935394,347.219513 411.479279,346.511749 414.023163,345.803986 
	C415.595428,345.696686 417.167664,345.589386 419.568146,345.688782 
	C423.429016,345.761597 426.461639,345.627747 429.436035,345.496460 
	C429.877625,347.512238 430.253326,349.227295 430.628998,350.942352 
	C430.667053,351.416138 430.705078,351.889893 430.442627,353.045349 
	C430.078766,363.207550 429.883270,372.689911 430.014252,382.167786 
	C430.070160,386.210449 430.084137,389.956757 425.976196,392.195801 
	C425.642426,392.286102 425.308624,392.376404 424.340607,392.282654 
	C422.132019,392.775635 420.557709,393.452698 418.983398,394.129761 
	C418.635284,394.216309 418.287201,394.302856 417.286255,394.215942 
	C414.746490,394.764771 412.859589,395.487091 410.972656,396.209381 
	C410.631134,396.281372 410.289612,396.353333 409.289246,396.245789 
	C406.420990,396.656830 404.180756,397.152039 402.006866,397.852966 
	C382.060913,404.283966 362.088379,410.637115 342.220520,417.301910 
	C338.199036,418.650940 334.585938,421.217438 330.784546,423.222656 
	C330.386292,423.371429 329.988037,423.520172 329.037537,423.478088 
	C326.673889,423.928284 324.751526,424.359955 323.072205,425.250244 
	C318.341949,427.757843 313.711639,430.453979 309.041931,433.075775 
	C309.041931,433.075775 308.732574,433.287872 308.169006,433.162445 
	C302.122650,435.724548 296.573822,438.290741 291.214386,441.205139 
	C290.181854,441.766602 289.432831,443.659515 289.335114,444.995361 
	C288.802551,452.275909 288.164490,459.576752 288.214874,466.866150 
	C288.322784,482.482361 289.095490,498.095337 289.126099,513.710571 
	C289.239716,571.646912 289.502838,629.586731 288.980743,687.518677 
	C288.787018,709.014832 291.872650,729.473572 301.290405,748.813049 
	C302.727112,751.763245 305.164673,754.226196 307.139313,756.914490 
	C307.139313,756.914490 307.411957,757.148987 307.316772,757.680176 
	C308.515076,759.787537 309.808563,761.363647 311.102020,762.939758 
	C311.102020,762.939758 311.370422,763.173645 311.296814,763.707764 
	C313.174530,766.479675 315.125854,768.717529 317.077209,770.955383 
	C317.911041,771.898071 318.744843,772.840820 319.708618,774.415222 
	C321.975281,776.935486 324.112000,778.823975 326.248718,780.712463 
	C326.248718,780.712463 326.130920,780.920471 326.171539,781.175049 
	C326.883789,781.867737 327.555450,782.305908 328.227081,782.744080 
	C328.227081,782.744080 328.081604,782.980469 328.132050,783.222046 
	C332.350037,787.391968 336.378174,791.484131 340.734039,795.191284 
	C343.649841,797.672668 347.031189,799.606995 350.204193,801.786194 
	C350.204193,801.786194 350.000000,802.000000 350.076843,802.243652 
	C352.231720,803.886841 354.309784,805.286377 356.387817,806.685913 
	C356.387817,806.685913 356.720032,806.873840 356.836548,807.377319 
	C361.987183,811.904907 366.937897,816.040527 372.095428,819.899719 
	C374.234924,821.500610 376.816772,822.510437 379.197449,823.789001 
	C379.197449,823.789001 379.004883,824.000183 379.071289,824.243408 
	C383.998962,827.714600 388.860199,830.942566 393.721436,834.170532 
	C393.721436,834.170532 393.843536,834.157532 393.872467,834.555359 
	C396.156677,836.607544 398.300293,838.447754 400.687561,839.882446 
	C408.695465,844.695007 416.790314,849.362793 424.851837,854.086060 
	C425.021423,854.147827 425.191040,854.209595 425.613464,854.764526 
	C427.876984,856.623779 429.808105,858.129028 431.912048,859.331970 
	C441.075409,864.571167 450.253784,869.786621 459.504730,874.868713 
	C462.516479,876.523254 462.625000,876.325684 463.706970,873.657776 
	C463.685944,842.842285 463.646698,812.026794 463.646973,781.211304 
	C463.648285,635.459534 463.660309,489.707794 464.122864,343.307190 
	C467.534607,342.293152 470.491974,341.928040 473.449341,341.562927 
	C473.976318,341.518402 474.503296,341.473877 475.752167,341.699036 
	C490.696503,341.910156 504.918976,341.862701 519.141357,341.787445 
	C524.569214,341.758728 529.996765,341.666382 535.424438,341.603027 
	C536.692322,341.633514 537.960266,341.664032 539.864624,342.055511 
	C543.824707,342.790100 547.148254,343.163696 550.471863,343.537292 
	C551.099121,343.545929 551.726440,343.554535 552.906250,343.950623 
	C556.468750,344.731110 559.478638,345.124084 562.488586,345.517059 
	C563.420105,345.553070 564.351624,345.589081 565.868408,346.010468 
	C568.473572,346.747803 570.493469,347.099762 572.513306,347.451721 
	C573.443726,347.497955 574.374207,347.544189 575.823181,348.050293 
	C578.391663,348.841919 580.441650,349.173706 582.491577,349.505463 
	C583.116272,349.533905 583.740906,349.562317 584.823059,349.983582 
	C586.837341,350.689392 588.394226,351.002441 589.951050,351.315491 
	C590.667603,351.381989 591.384094,351.448486 592.557617,351.923157 
	C594.662170,352.645203 596.309631,352.959076 597.957153,353.272949 
	C598.375854,353.306976 598.794617,353.341003 599.612061,353.790405 
	C601.661255,354.548706 603.311646,354.891693 604.962097,355.234711 
	C605.381226,355.269226 605.800354,355.303741 606.627075,355.741577 
	C608.676758,356.515839 610.318909,356.886871 611.961060,357.257904 
	C612.379822,357.288544 612.798645,357.319183 613.617493,357.786499 
	C617.663452,359.245514 621.309265,360.267822 624.955139,361.290161 
	C625.374634,361.313812 625.794189,361.337494 626.591431,361.801819 
	C630.599915,363.756073 634.242432,365.242249 637.859558,366.787811 
	C659.920471,376.214630 682.107422,385.362152 703.984070,395.199219 
	C717.350464,401.209534 729.218323,409.358856 734.737854,424.024078 
	C734.930420,424.535767 735.750549,424.811218 736.278198,425.196777 
	C736.433350,425.905090 736.588562,426.613373 736.501587,427.931702 
	C736.934021,430.758179 737.608643,432.974670 738.283325,435.191132 
	C738.379517,436.513062 738.559692,437.834961 738.559692,439.156891 
	C738.561951,499.741638 738.548523,560.326355 738.148987,621.583679 
	C737.494080,623.855042 737.011047,625.451233 736.991943,627.052979 
	C736.641724,656.418701 736.336426,685.784912 736.070068,715.151489 
	C736.055542,716.750122 736.465881,718.352539 736.678467,719.953186 
	C736.628357,721.305664 736.578247,722.658142 736.133789,724.569946 
	C735.367188,728.067749 734.994873,731.006165 734.622559,733.944580 
	C734.608032,734.364746 734.593506,734.784912 734.193115,735.645996 
	C733.446045,738.044617 733.084717,740.002319 732.723511,741.960022 
	C732.705505,742.379700 732.687500,742.799438 732.259033,743.609436 
	C731.490540,745.655090 731.132568,747.310425 730.774536,748.965759 
	C730.738281,749.384827 730.702087,749.803955 730.211548,750.600830 
	C729.408325,751.327942 728.931702,751.615662 728.729004,752.035522 
	C724.581909,760.627014 720.542847,769.271484 716.313171,777.821716 
	C714.080139,782.335571 711.525818,786.690369 709.116577,791.116943 
	C709.116516,791.116943 708.993042,791.022949 708.712036,791.091797 
	C706.659241,793.813599 704.887451,796.466553 703.115662,799.119507 
	C703.115662,799.119507 702.996277,799.011475 702.713196,799.058655 
	C702.034790,799.809143 701.639526,800.512451 701.244141,801.215759 
	C701.244141,801.215759 701.006775,801.071899 700.776611,801.149658 
	C696.256592,805.476685 691.905151,809.666016 687.697571,813.995300 
	C684.654541,817.126465 681.802734,820.443420 678.865723,823.677490 
	C678.502686,824.107422 678.139648,824.537292 677.163696,825.015686 
	C671.805664,829.467896 667.060608,833.871582 662.315552,838.275269 
	C662.315552,838.275269 662.165405,838.174927 661.880493,838.182251 
	C660.701294,839.081787 659.806946,839.974121 658.912598,840.866455 
	C658.912598,840.866455 658.946228,840.959229 658.552979,840.933838 
	C655.478088,843.327881 652.796509,845.747314 650.114868,848.166748 
	C649.927124,848.448669 649.675659,848.651733 648.775818,848.831421 
	C644.490784,851.959900 640.790405,855.032776 637.090088,858.105713 
	C637.090027,858.105652 637.018372,857.994080 636.704102,857.983032 
	C633.546814,860.236084 630.703735,862.500244 627.860596,864.764404 
	C627.860596,864.764404 627.862305,864.865051 627.454346,864.822388 
	C626.281433,865.090576 625.440674,865.285645 624.762878,865.729553 
	C613.178101,873.317566 601.601013,880.917542 590.069763,888.586487 
	C589.218567,889.152588 588.730103,890.264221 588.072998,891.122192 
	C588.072998,891.122192 587.800842,891.362000 587.253662,891.250793 
	C578.880432,895.538757 571.054688,899.938354 563.228333,904.336792 
	C559.448730,906.460938 555.667786,908.582764 551.887512,910.705688 
	C551.468323,910.786499 551.049194,910.867310 550.059326,910.640625 
	C549.008484,908.703186 548.143982,907.080322 548.113464,905.442017 
	C547.966187,897.536438 548.121521,889.625549 548.011108,881.718811 
	C547.947510,877.162292 547.583069,872.609924 547.354004,868.055725 
	C547.322693,867.581726 547.291321,867.107788 547.554199,865.997620 
	C547.476929,861.556458 548.962708,858.860107 552.449097,857.149170 
	C553.145996,856.807190 553.449341,855.663269 553.934204,854.889099 
	C553.934204,854.889099 554.186829,854.636841 554.723145,854.713928 
	C560.407532,851.580261 565.662476,848.526184 570.669678,845.109009 
	C574.644104,842.396606 578.315247,839.239807 582.121033,836.280334 
	C582.121033,836.280334 582.305969,835.929016 582.838501,835.864685 
	C585.638916,833.971558 587.906738,832.142761 590.174561,830.313965 
	C590.174561,830.313965 590.166016,830.176758 590.584839,830.203125 
	C595.092651,827.207092 599.285767,824.313293 603.234863,821.117920 
	C605.956848,818.915344 608.341003,816.295349 610.876221,813.862000 
	C610.876221,813.862000 610.982849,814.005798 611.285889,814.016663 
	C614.113770,811.826965 616.638550,809.626404 619.163330,807.425903 
	C619.163330,807.425903 619.387268,807.055603 619.933655,806.965576 
	C622.310608,805.233643 624.141174,803.591736 625.971680,801.949768 
	C626.165222,801.674377 626.408691,801.454163 627.277832,801.200256 
	C634.093933,796.026550 640.388062,791.005493 646.538757,785.814575 
	C648.193970,784.417664 649.413086,782.503967 650.832336,780.827515 
	C650.832336,780.827515 651.000000,780.997559 651.265137,780.962280 
	C652.665771,779.593445 653.801270,778.259827 654.936707,776.926208 
	C654.936707,776.926208 654.996460,777.000549 655.299255,777.007019 
	C656.434509,776.060303 657.267029,775.107117 658.099548,774.153992 
	C658.099548,774.153992 658.066589,774.066650 658.446533,774.065125 
	C659.547668,773.036377 660.268799,772.009216 660.989990,770.982056 
	C662.148071,769.778076 663.306091,768.574097 665.047363,767.169922 
	C666.040161,766.264282 666.449768,765.558777 666.859375,764.853271 
	C666.859436,764.853271 666.997559,764.997559 667.274414,764.958008 
	C679.498047,752.250183 686.172058,736.807678 687.840576,719.903748 
	C689.633545,701.739319 689.686890,683.362854 689.757690,665.075989 
	C690.027527,595.422913 689.999146,525.768738 690.074829,456.114929 
	C690.076782,454.283356 690.317139,452.371765 689.888062,450.635498 
	C688.735535,445.971527 688.905334,440.983246 683.248352,438.157471 
	C652.233459,422.665009 620.564758,408.899872 586.881287,400.261292 
	C580.524353,398.630951 573.988525,397.698425 567.535217,396.443909 
	C567.197632,396.441620 566.859985,396.439301 566.031372,396.054749 
	C562.874939,395.259399 560.209595,394.846313 557.544250,394.433228 
	C557.205566,394.434784 556.866943,394.436340 556.033691,394.059143 
	C552.208557,393.266144 548.878113,392.851898 545.547607,392.437683 
	C544.601501,392.392548 543.655334,392.347412 542.154419,391.880005 
	C538.897461,391.151123 536.195312,390.844482 533.493103,390.537872 
	C531.923096,390.485718 530.353088,390.433533 528.215454,389.924622 
	C517.792053,385.090149 513.854065,387.365692 513.853943,397.486176 
	C513.851501,569.515076 513.853088,741.544006 513.882629,913.572876 
	C513.882935,915.537720 514.263550,917.502625 514.466614,919.467468 
	C514.511780,919.984924 514.556885,920.502319 514.327209,921.741211 
	C514.185913,923.796265 514.319458,925.129944 514.453003,926.463623 
z"/>
<path fill="#B8B8B8" opacity="1.000000" stroke="none" 
	d="
M514.719482,919.181641 
	C514.263550,917.502625 513.882935,915.537720 513.882629,913.572876 
	C513.853088,741.544006 513.851501,569.515076 513.853943,397.486176 
	C513.854065,387.365692 517.792053,385.090149 527.835510,389.815002 
	C525.229370,390.109497 522.344482,390.479370 519.663940,389.901489 
	C515.989807,389.109497 515.180115,390.720825 515.228455,393.788727 
	C515.267822,396.286255 515.232666,398.784943 515.232605,401.283112 
	C515.228210,571.329285 515.225098,741.375427 515.209534,911.421570 
	C515.209351,913.912964 515.054871,916.404358 514.719482,919.181641 
z"/>
<path fill="#B8B8B8" opacity="1.000000" stroke="none" 
	d="
M567.732422,396.745605 
	C573.988525,397.698425 580.524353,398.630951 586.881287,400.261292 
	C620.564758,408.899872 652.233459,422.665009 683.248352,438.157471 
	C688.905334,440.983246 688.735535,445.971527 689.888062,450.635498 
	C690.317139,452.371765 690.076782,454.283356 690.074829,456.114929 
	C689.999146,525.768738 690.027527,595.422913 689.757690,665.075989 
	C689.686890,683.362854 689.633545,701.739319 687.840576,719.903748 
	C686.172058,736.807678 679.498047,752.250183 667.201538,764.889648 
	C671.297424,757.126038 676.126770,749.582092 680.095398,741.609680 
	C685.517212,730.718018 687.422302,718.798767 687.509888,706.778931 
	C687.786804,668.801331 687.650574,630.820984 687.745789,592.841858 
	C687.858459,547.868713 687.848511,502.893524 688.348877,457.924316 
	C688.463562,447.613312 686.074890,440.881989 675.738342,436.050873 
	C649.102966,423.601990 622.333740,411.744812 593.867249,404.087708 
	C585.216064,401.760681 576.575256,399.395172 567.732422,396.745605 
z"/>
<path fill="#B8B8B8" opacity="1.000000" stroke="none" 
	d="
M307.153198,756.547241 
	C305.164673,754.226196 302.727112,751.763245 301.290405,748.813049 
	C291.872650,729.473572 288.787018,709.014832 288.980743,687.518677 
	C289.502838,629.586731 289.239716,571.646912 289.126099,513.710571 
	C289.095490,498.095337 288.322784,482.482361 288.214874,466.866150 
	C288.164490,459.576752 288.802551,452.275909 289.335114,444.995361 
	C289.432831,443.659515 290.181854,441.766602 291.214386,441.205139 
	C296.573822,438.290741 302.122650,435.724548 307.981689,433.170593 
	C304.203796,435.661194 300.123260,438.162598 295.871826,440.328552 
	C292.591125,441.999969 290.872070,444.119324 290.869202,448.066589 
	C290.852600,470.873108 290.505920,493.679291 290.477509,516.485840 
	C290.402588,576.615723 290.291809,636.746216 290.499115,696.875427 
	C290.572174,718.065186 296.520203,737.842041 307.153198,756.547241 
z"/>
<path fill="#B8B8B8" opacity="1.000000" stroke="none" 
	d="
M239.531525,448.264099 
	C240.254028,448.881409 241.303848,449.954224 241.303040,451.026215 
	C241.282700,478.003387 240.980881,504.981140 241.075516,531.957520 
	C241.282913,591.078125 241.682083,650.198181 241.992783,709.318481 
	C241.996246,709.978210 241.863770,710.638611 241.545059,711.622925 
	C240.769043,708.032043 239.792374,704.117920 239.784592,700.201782 
	C239.682434,648.869507 239.758606,597.536987 239.702484,546.204590 
	C239.666946,513.709412 239.485382,481.214325 239.531525,448.264099 
z"/>
<path fill="#B8B8B8" opacity="1.000000" stroke="none" 
	d="
M736.411438,424.854431 
	C735.750549,424.811218 734.930420,424.535767 734.737854,424.024078 
	C729.218323,409.358856 717.350464,401.209534 703.984070,395.199219 
	C682.107422,385.362152 659.920471,376.214630 637.859558,366.787811 
	C634.242432,365.242249 630.599915,363.756073 626.885620,361.918396 
	C633.965759,363.993622 641.359863,365.867401 648.250427,368.889313 
	C670.232544,378.529602 692.197571,388.243164 713.823547,398.646820 
	C724.736572,403.896790 732.598877,412.702850 736.411438,424.854431 
z"/>
<path fill="#B8B8B8" opacity="1.000000" stroke="none" 
	d="
M354.311035,867.161682 
	C359.497498,869.990295 364.831207,872.963440 369.887909,876.350159 
	C396.903503,894.443787 424.930450,910.819641 453.622131,926.088623 
	C457.818390,928.321777 461.834717,930.893005 465.964111,933.659607 
	C448.110413,924.327148 429.873840,915.233032 412.436768,904.802490 
	C392.693878,892.992737 373.668030,879.984314 354.311035,867.161682 
z"/>
<path fill="#B8B8B8" opacity="1.000000" stroke="none" 
	d="
M736.912231,719.647400 
	C736.465881,718.352539 736.055542,716.750122 736.070068,715.151489 
	C736.336426,685.784912 736.641724,656.418701 736.991943,627.052979 
	C737.011047,625.451233 737.494080,623.855042 738.070801,622.033203 
	C737.969055,654.320618 737.557556,686.831116 736.912231,719.647400 
z"/>
<path fill="#B8B8B8" opacity="1.000000" stroke="none" 
	d="
M366.802368,357.434479 
	C364.316772,358.946014 361.579529,360.716705 358.582581,361.676819 
	C331.192261,370.451752 304.651367,381.321167 278.691681,393.660400 
	C276.347961,394.774414 273.876770,395.620392 271.245972,396.370789 
	C277.004578,393.132111 282.788574,389.622070 288.993103,387.180603 
	C314.736389,377.050720 340.606628,367.243408 366.802368,357.434479 
z"/>
<path fill="#B8B8B8" opacity="1.000000" stroke="none" 
	d="
M331.125336,423.334686 
	C334.585938,421.217438 338.199036,418.650940 342.220520,417.301910 
	C362.088379,410.637115 382.060913,404.283966 402.006866,397.852966 
	C404.180756,397.152039 406.420990,396.656830 409.027466,396.224915 
	C403.709045,398.363251 397.992249,400.338959 392.278442,402.323212 
	C372.007111,409.362762 351.736816,416.405304 331.125336,423.334686 
z"/>
<path fill="#B8B8B8" opacity="1.000000" stroke="none" 
	d="
M535.154419,341.333527 
	C529.996765,341.666382 524.569214,341.758728 519.141357,341.787445 
	C504.918976,341.862701 490.696503,341.910156 476.010132,341.765503 
	C477.269531,341.095825 478.989899,340.236847 480.716614,340.223907 
	C496.975983,340.102264 513.236572,340.095093 529.496460,340.148468 
	C531.293457,340.154358 533.088440,340.744720 535.154419,341.333527 
z"/>
<path fill="#B8B8B8" opacity="1.000000" stroke="none" 
	d="
M245.413712,739.211182 
	C246.914139,741.909241 248.607239,744.889587 249.613998,748.086121 
	C254.590561,763.887207 261.786194,778.519043 271.874023,791.700684 
	C272.449860,792.453064 272.651245,793.492065 272.951172,794.761230 
	C267.679565,787.292908 261.588989,779.895813 257.516937,771.517639 
	C252.554382,761.307190 249.289261,750.271790 245.413712,739.211182 
z"/>
<path fill="#B8B8B8" opacity="1.000000" stroke="none" 
	d="
M588.438416,891.137939 
	C588.730103,890.264221 589.218567,889.152588 590.069763,888.586487 
	C601.601013,880.917542 613.178101,873.317566 624.762878,865.729553 
	C625.440674,865.285645 626.281433,865.090576 627.405151,864.811646 
	C619.013306,871.015686 610.317810,877.268311 601.487549,883.324463 
	C597.394836,886.131409 593.039856,888.555847 588.438416,891.137939 
z"/>
<path fill="#B8B8B8" opacity="1.000000" stroke="none" 
	d="
M709.426819,791.000854 
	C711.525818,786.690369 714.080139,782.335571 716.313171,777.821716 
	C720.542847,769.271484 724.581909,760.627014 728.729004,752.035522 
	C728.931702,751.615662 729.408325,751.327942 730.084839,750.891357 
	C726.207214,765.550232 719.000305,778.747864 709.426819,791.000854 
z"/>
<path fill="#B8B8B8" opacity="1.000000" stroke="none" 
	d="
M268.884460,396.662079 
	C267.908264,397.849274 266.705597,399.107819 265.280731,400.018829 
	C255.167252,406.485291 246.805191,414.354889 243.511536,426.440857 
	C243.354187,427.018219 242.709808,427.462860 241.982910,428.089294 
	C242.854172,419.199890 247.735931,412.121979 254.213470,406.324768 
	C258.483307,402.503387 263.740204,399.784912 268.884460,396.662079 
z"/>
<path fill="#B8B8B8" opacity="1.000000" stroke="none" 
	d="
M547.100830,868.370422 
	C547.583069,872.609924 547.947510,877.162292 548.011108,881.718811 
	C548.121521,889.625549 547.966187,897.536438 548.113464,905.442017 
	C548.143982,907.080322 549.008484,908.703186 549.737854,910.628479 
	C546.352173,913.014221 546.636536,910.213135 546.641357,908.124817 
	C546.671509,894.978149 546.771057,881.831665 547.100830,868.370422 
z"/>
<path fill="#B8B8B8" opacity="1.000000" stroke="none" 
	d="
M463.374329,873.852844 
	C462.625000,876.325684 462.516479,876.523254 459.504730,874.868713 
	C450.253784,869.786621 441.075409,864.571167 431.912048,859.331970 
	C429.808105,858.129028 427.876984,856.623779 425.828094,854.929565 
	C434.539154,859.427185 443.246124,864.332092 452.058472,869.039795 
	C455.600494,870.932007 459.373718,872.391479 463.374329,873.852844 
z"/>
<path fill="#B8B8B8" opacity="1.000000" stroke="none" 
	d="
M426.270935,392.324036 
	C430.084137,389.956757 430.070160,386.210449 430.014252,382.167786 
	C429.883270,372.689911 430.078766,363.207550 430.383301,353.398102 
	C430.854736,358.959686 431.168365,364.848419 431.290894,370.741150 
	C431.404327,376.195221 431.236847,381.654999 431.340454,387.109436 
	C431.404663,390.490540 430.279999,392.565857 426.270935,392.324036 
z"/>
<path fill="#B8B8B8" opacity="1.000000" stroke="none" 
	d="
M552.257019,910.831726 
	C555.667786,908.582764 559.448730,906.460938 563.228333,904.336792 
	C571.054688,899.938354 578.880432,895.538757 587.073303,891.270447 
	C575.835632,897.920166 564.231079,904.438965 552.257019,910.831726 
z"/>
<path fill="#B8B8B8" opacity="1.000000" stroke="none" 
	d="
M424.819489,853.753296 
	C416.790314,849.362793 408.695465,844.695007 400.687561,839.882446 
	C398.300293,838.447754 396.156677,836.607544 393.868164,834.616577 
	C395.423462,835.044067 397.107330,835.658081 398.584900,836.596863 
	C407.345551,842.163025 416.058289,847.804382 424.819489,853.753296 
z"/>
<path fill="#B8B8B8" opacity="1.000000" stroke="none" 
	d="
M679.200439,823.716919 
	C681.802734,820.443420 684.654541,817.126465 687.697571,813.995300 
	C691.905151,809.666016 696.256592,805.476685 700.888794,801.231812 
	C693.999146,808.742920 686.767212,816.249634 679.200439,823.716919 
z"/>
<path fill="#B8B8B8" opacity="1.000000" stroke="none" 
	d="
M581.770752,836.264221 
	C578.315247,839.239807 574.644104,842.396606 570.669678,845.109009 
	C565.662476,848.526184 560.407532,851.580261 554.899475,854.685791 
	C558.930481,851.449280 563.271545,848.244751 567.726379,845.207153 
	C572.232422,842.134644 576.851135,839.227600 581.770752,836.264221 
z"/>
<path fill="#B8B8B8" opacity="1.000000" stroke="none" 
	d="
M650.485474,780.844543 
	C649.413086,782.503967 648.193970,784.417664 646.538757,785.814575 
	C640.388062,791.005493 634.093933,796.026550 627.500977,801.092529 
	C634.811707,794.336304 642.475098,787.598938 650.485474,780.844543 
z"/>
<path fill="#B8B8B8" opacity="1.000000" stroke="none" 
	d="
M350.164978,801.451843 
	C347.031189,799.606995 343.649841,797.672668 340.734039,795.191284 
	C336.378174,791.484131 332.350037,787.391968 328.216492,783.111816 
	C335.542267,788.879150 342.834015,794.998291 350.164978,801.451843 
z"/>
<path fill="#B8B8B8" opacity="1.000000" stroke="none" 
	d="
M379.105347,823.470032 
	C376.816772,822.510437 374.234924,821.500610 372.095428,819.899719 
	C366.937897,816.040527 361.987183,811.904907 356.928162,807.544678 
	C364.273254,812.522827 371.643250,817.836914 379.105347,823.470032 
z"/>
<path fill="#B8B8B8" opacity="1.000000" stroke="none" 
	d="
M303.800232,827.570068 
	C308.618988,830.806702 313.525848,834.296143 318.265350,837.999756 
	C320.317169,839.603088 322.023773,841.648071 323.882080,843.839600 
	C317.191528,838.761108 310.506012,833.335388 303.800232,827.570068 
z"/>
<path fill="#B8B8B8" opacity="1.000000" stroke="none" 
	d="
M610.526184,813.867798 
	C608.341003,816.295349 605.956848,818.915344 603.234863,821.117920 
	C599.285767,824.313293 595.092651,827.207092 590.653442,830.207520 
	C596.927551,824.748108 603.551819,819.310791 610.526184,813.867798 
z"/>
<path fill="#B8B8B8" opacity="1.000000" stroke="none" 
	d="
M336.916138,854.483337 
	C342.596649,858.114319 348.347626,862.074707 354.134827,866.370483 
	C348.442902,862.741455 342.714722,858.777100 336.916138,854.483337 
z"/>
<path fill="#B8B8B8" opacity="1.000000" stroke="none" 
	d="
M309.416870,433.128296 
	C313.711639,430.453979 318.341949,427.757843 323.072205,425.250244 
	C324.751526,424.359955 326.673889,423.928284 328.717377,423.501221 
	C322.563568,426.870361 316.177704,430.025574 309.416870,433.128296 
z"/>
<path fill="#B8B8B8" opacity="1.000000" stroke="none" 
	d="
M662.654053,838.230591 
	C667.060608,833.871582 671.805664,829.467896 676.903809,825.128784 
	C672.502136,829.524231 667.747314,833.855103 662.654053,838.230591 
z"/>
<path fill="#B8B8B8" opacity="1.000000" stroke="none" 
	d="
M430.863586,350.660797 
	C430.253326,349.227295 429.877625,347.512238 429.436035,345.496460 
	C426.461639,345.627747 423.429016,345.761597 419.960236,345.714874 
	C421.029449,345.006836 422.496490,344.260315 424.046661,343.989349 
	C431.253845,342.729523 431.618805,343.101501 430.863586,350.660797 
z"/>
<path fill="#B8B8B8" opacity="1.000000" stroke="none" 
	d="
M393.696625,833.835815 
	C388.860199,830.942566 383.998962,827.714600 379.169678,824.139221 
	C384.025024,827.028259 388.848419,830.264709 393.696625,833.835815 
z"/>
<path fill="#B8B8B8" opacity="1.000000" stroke="none" 
	d="
M466.825470,934.586792 
	C471.625427,936.069702 476.597961,937.845337 481.800415,939.900879 
	C477.019562,938.413696 472.008789,936.646606 466.825470,934.586792 
z"/>
<path fill="#B8B8B8" opacity="1.000000" stroke="none" 
	d="
M324.607117,844.852844 
	C328.609894,847.519897 332.750061,850.488220 336.871460,853.807800 
	C332.816650,851.157349 328.780609,848.155701 324.607117,844.852844 
z"/>
<path fill="#B8B8B8" opacity="1.000000" stroke="none" 
	d="
M241.120728,430.328583 
	C241.030441,433.976898 240.676300,437.896515 240.043884,442.013367 
	C240.129364,438.340363 240.493103,434.470154 241.120728,430.328583 
z"/>
<path fill="#B8B8B8" opacity="1.000000" stroke="none" 
	d="
M496.258362,940.343262 
	C500.233429,938.187317 504.490356,936.197632 509.114563,934.338745 
	C505.167999,936.482849 500.854126,938.496155 496.258362,940.343262 
z"/>
<path fill="#B8B8B8" opacity="1.000000" stroke="none" 
	d="
M553.573730,854.874023 
	C553.449341,855.663269 553.145996,856.807190 552.449097,857.149170 
	C548.962708,858.860107 547.476929,861.556458 547.613953,865.645508 
	C545.856873,859.499146 546.198669,858.850464 553.573730,854.874023 
z"/>
<path fill="#B8B8B8" opacity="1.000000" stroke="none" 
	d="
M637.445435,858.131104 
	C640.790405,855.032776 644.490784,851.959900 648.543945,848.911865 
	C645.198120,852.010010 641.499512,855.083252 637.445435,858.131104 
z"/>
<path fill="#B8B8B8" opacity="1.000000" stroke="none" 
	d="
M379.831116,353.532104 
	C376.643738,355.020294 373.092529,356.353638 369.290344,357.447937 
	C372.515320,355.931702 375.991302,354.654510 379.831116,353.532104 
z"/>
<path fill="#B8B8B8" opacity="1.000000" stroke="none" 
	d="
M624.741699,361.000763 
	C621.309265,360.267822 617.663452,359.245514 613.913269,357.897705 
	C617.382019,358.618622 620.955139,359.665009 624.741699,361.000763 
z"/>
<path fill="#B8B8B8" opacity="1.000000" stroke="none" 
	d="
M550.244324,343.262207 
	C547.148254,343.163696 543.824707,342.790100 540.237915,342.134766 
	C543.322021,342.231049 546.669434,342.609100 550.244324,343.262207 
z"/>
<path fill="#B8B8B8" opacity="1.000000" stroke="none" 
	d="
M241.492157,718.214233 
	C242.357376,720.670715 243.057449,723.525513 243.519058,726.664246 
	C242.629410,724.169678 241.978226,721.391113 241.492157,718.214233 
z"/>
<path fill="#B8B8B8" opacity="1.000000" stroke="none" 
	d="
M545.787720,392.697632 
	C548.878113,392.851898 552.208557,393.266144 555.791504,393.976837 
	C552.705261,393.834778 549.366516,393.396210 545.787720,392.697632 
z"/>
<path fill="#B8B8B8" opacity="1.000000" stroke="none" 
	d="
M650.465820,848.156311 
	C652.796509,845.747314 655.478088,843.327881 658.511353,840.907349 
	C656.180908,843.319397 653.498779,845.732666 650.465820,848.156311 
z"/>
<path fill="#B8B8B8" opacity="1.000000" stroke="none" 
	d="
M734.880432,733.672852 
	C734.994873,731.006165 735.367188,728.067749 736.032288,724.963745 
	C735.929504,727.665771 735.533936,730.533447 734.880432,733.672852 
z"/>
<path fill="#B8B8B8" opacity="1.000000" stroke="none" 
	d="
M618.826904,807.390137 
	C616.638550,809.626404 614.113770,811.826965 611.227783,813.947449 
	C613.407959,811.696411 615.949219,809.525391 618.826904,807.390137 
z"/>
<path fill="#B8B8B8" opacity="1.000000" stroke="none" 
	d="
M562.286438,345.232117 
	C559.478638,345.124084 556.468750,344.731110 553.208496,344.039917 
	C556.000244,344.143555 559.042236,344.545349 562.286438,345.232117 
z"/>
<path fill="#B8B8B8" opacity="1.000000" stroke="none" 
	d="
M628.210876,864.795532 
	C630.703735,862.500244 633.546814,860.236084 636.746460,858.034912 
	C634.255737,860.340881 631.408447,862.583740 628.210876,864.795532 
z"/>
<path fill="#B8B8B8" opacity="1.000000" stroke="none" 
	d="
M276.147400,799.237305 
	C278.446136,801.399780 280.708313,803.912842 282.922119,806.778809 
	C280.619446,804.617065 278.365143,802.102478 276.147400,799.237305 
z"/>
<path fill="#B8B8B8" opacity="1.000000" stroke="none" 
	d="
M483.834717,940.650146 
	C486.889252,940.218933 490.169037,940.093506 493.911346,940.147766 
	C490.935913,940.536926 487.497955,940.746460 483.834717,940.650146 
z"/>
<path fill="#B8B8B8" opacity="1.000000" stroke="none" 
	d="
M703.433960,799.022461 
	C704.887451,796.466553 706.659241,793.813599 708.776550,791.132935 
	C707.332092,793.712036 705.542175,796.318787 703.433960,799.022461 
z"/>
<path fill="#B8B8B8" opacity="1.000000" stroke="none" 
	d="
M533.730957,390.788208 
	C536.195312,390.844482 538.897461,391.151123 541.809387,391.791443 
	C539.335693,391.762939 536.652222,391.400757 533.730957,390.788208 
z"/>
<path fill="#B8B8B8" opacity="1.000000" stroke="none" 
	d="
M473.199493,341.310425 
	C470.491974,341.928040 467.534607,342.293152 464.192749,342.844910 
	C465.057068,342.276062 466.230743,341.115753 467.573547,340.866394 
	C469.294373,340.546844 471.151337,340.960358 473.199493,341.310425 
z"/>
<path fill="#B8B8B8" opacity="1.000000" stroke="none" 
	d="
M557.743103,394.713593 
	C560.209595,394.846313 562.874939,395.259399 565.791626,395.968079 
	C563.342590,395.840454 560.642273,395.417206 557.743103,394.713593 
z"/>
<path fill="#B8B8B8" opacity="1.000000" stroke="none" 
	d="
M413.729675,345.633057 
	C411.479279,346.511749 408.935394,347.219513 405.971008,347.749268 
	C408.179047,346.868225 410.807648,346.165161 413.729675,345.633057 
z"/>
<path fill="#B8B8B8" opacity="1.000000" stroke="none" 
	d="
M317.068787,770.604370 
	C315.125854,768.717529 313.174530,766.479675 311.333069,763.881958 
	C313.315369,765.765930 315.187866,768.009644 317.068787,770.604370 
z"/>
<path fill="#B8B8B8" opacity="1.000000" stroke="none" 
	d="
M296.915283,821.482056 
	C299.186218,822.945496 301.524872,824.738220 303.818756,826.877991 
	C301.510315,825.420532 299.246674,823.615967 296.915283,821.482056 
z"/>
<path fill="#B8B8B8" opacity="1.000000" stroke="none" 
	d="
M326.170410,780.385498 
	C324.112000,778.823975 321.975281,776.935486 319.840942,774.704468 
	C321.926239,776.260803 324.009155,778.159668 326.170410,780.385498 
z"/>
<path fill="#B8B8B8" opacity="1.000000" stroke="none" 
	d="
M589.831421,830.295532 
	C587.906738,832.142761 585.638916,833.971558 583.007935,835.761230 
	C584.925903,833.907104 587.207031,832.092041 589.831421,830.295532 
z"/>
<path fill="#B8B8B8" opacity="1.000000" stroke="none" 
	d="
M738.433472,434.817535 
	C737.608643,432.974670 736.934021,430.758179 736.490601,428.296204 
	C737.342407,430.181763 737.963074,432.312866 738.433472,434.817535 
z"/>
<path fill="#B8B8B8" opacity="1.000000" stroke="none" 
	d="
M243.530518,731.162109 
	C244.357269,732.692505 245.044846,734.576843 245.502380,736.706238 
	C244.645340,735.139526 244.018326,733.327820 243.530518,731.162109 
z"/>
<path fill="#B8B8B8" opacity="1.000000" stroke="none" 
	d="
M582.296997,349.242920 
	C580.441650,349.173706 578.391663,348.841919 576.157104,348.157379 
	C578.015808,348.196533 580.059143,348.588440 582.296997,349.242920 
z"/>
<path fill="#B8B8B8" opacity="1.000000" stroke="none" 
	d="
M403.748016,347.609161 
	C402.113342,348.455872 400.199585,349.145447 397.891541,349.659973 
	C399.487793,348.807281 401.478363,348.129669 403.748016,347.609161 
z"/>
<path fill="#B8B8B8" opacity="1.000000" stroke="none" 
	d="
M356.306854,806.355225 
	C354.309784,805.286377 352.231720,803.886841 350.179626,802.137207 
	C352.212341,803.199585 354.219116,804.612061 356.306854,806.355225 
z"/>
<path fill="#B8B8B8" opacity="1.000000" stroke="none" 
	d="
M625.624756,801.959351 
	C624.141174,803.591736 622.310608,805.233643 620.114197,806.846313 
	C621.591553,805.200989 623.434753,803.584900 625.624756,801.959351 
z"/>
<path fill="#B8B8B8" opacity="1.000000" stroke="none" 
	d="
M572.311523,347.194824 
	C570.493469,347.099762 568.473572,346.747803 566.209412,346.091797 
	C568.013306,346.171143 570.061523,346.554535 572.311523,347.194824 
z"/>
<path fill="#B8B8B8" opacity="1.000000" stroke="none" 
	d="
M411.239380,396.389252 
	C412.859589,395.487091 414.746490,394.764771 417.016357,394.200745 
	C415.434937,395.095764 413.470520,395.832428 411.239380,396.389252 
z"/>
<path fill="#B8B8B8" opacity="1.000000" stroke="none" 
	d="
M732.984985,741.708740 
	C733.084717,740.002319 733.446045,738.044617 734.091797,735.946045 
	C733.999756,737.689331 733.623169,739.573425 732.984985,741.708740 
z"/>
<path fill="#B8B8B8" opacity="1.000000" stroke="none" 
	d="
M604.773682,354.930542 
	C603.311646,354.891693 601.661255,354.548706 599.905396,353.909729 
	C601.395020,353.951263 602.990112,354.288818 604.773682,354.930542 
z"/>
<path fill="#B8B8B8" opacity="1.000000" stroke="none" 
	d="
M731.062012,748.752869 
	C731.132568,747.310425 731.490540,745.655090 732.152588,743.907471 
	C732.087585,745.390137 731.718567,746.965027 731.062012,748.752869 
z"/>
<path fill="#B8B8B8" opacity="1.000000" stroke="none" 
	d="
M611.753906,356.968567 
	C610.318909,356.886871 608.676758,356.515839 606.924194,355.851166 
	C608.391479,355.931396 609.969177,356.305298 611.753906,356.968567 
z"/>
<path fill="#B8B8B8" opacity="1.000000" stroke="none" 
	d="
M510.434601,934.173584 
	C511.261566,932.793640 512.425720,931.430847 513.942200,930.022949 
	C513.120300,931.382141 511.946045,932.786438 510.434601,934.173584 
z"/>
<path fill="#B8B8B8" opacity="1.000000" stroke="none" 
	d="
M589.780762,351.043213 
	C588.394226,351.002441 586.837341,350.689392 585.123657,350.074432 
	C586.514709,350.105316 588.062561,350.438141 589.780762,351.043213 
z"/>
<path fill="#B8B8B8" opacity="1.000000" stroke="none" 
	d="
M597.749695,352.984039 
	C596.309631,352.959076 594.662170,352.645203 592.898071,352.043121 
	C594.368408,352.068298 595.955322,352.381714 597.749695,352.984039 
z"/>
<path fill="#B8B8B8" opacity="1.000000" stroke="none" 
	d="
M386.871307,351.602325 
	C385.647736,352.438538 384.094055,353.123901 382.305542,353.599335 
	C383.560883,352.743439 385.051056,352.097443 386.871307,351.602325 
z"/>
<path fill="#B8B8B8" opacity="1.000000" stroke="none" 
	d="
M393.769897,349.715576 
	C392.846832,350.494171 391.684479,351.111084 390.286865,351.496490 
	C391.211273,350.694641 392.370941,350.124298 393.769897,349.715576 
z"/>
<path fill="#B8B8B8" opacity="1.000000" stroke="none" 
	d="
M419.241364,394.272705 
	C420.557709,393.452698 422.132019,392.775635 424.079956,392.265442 
	C422.802155,393.093445 421.150726,393.754547 419.241364,394.272705 
z"/>
<path fill="#B8B8B8" opacity="1.000000" stroke="none" 
	d="
M311.128235,762.595947 
	C309.808563,761.363647 308.515076,759.787537 307.357178,757.855469 
	C308.713287,759.083679 309.933838,760.667969 311.128235,762.595947 
z"/>
<path fill="#B8B8B8" opacity="1.000000" stroke="none" 
	d="
M654.601074,776.942139 
	C653.801270,778.259827 652.665771,779.593445 651.178589,780.880127 
	C651.973145,779.541504 653.119324,778.249756 654.601074,776.942139 
z"/>
<path fill="#B8B8B8" opacity="1.000000" stroke="none" 
	d="
M514.701843,926.287354 
	C514.319458,925.129944 514.185913,923.796265 514.261841,921.994568 
	C514.631042,923.054688 514.790833,924.582886 514.701843,926.287354 
z"/>
<path fill="#B8B8B8" opacity="1.000000" stroke="none" 
	d="
M272.875366,795.453613 
	C273.955292,796.116516 275.040344,797.117615 276.126648,798.462158 
	C275.045441,797.800964 273.962952,796.796326 272.875366,795.453613 
z"/>
<path fill="#B8B8B8" opacity="1.000000" stroke="none" 
	d="
M660.663330,771.015869 
	C660.268799,772.009216 659.547668,773.036377 658.489746,774.082642 
	C658.880920,773.084412 659.608765,772.067078 660.663330,771.015869 
z"/>
<path fill="#B8B8B8" opacity="1.000000" stroke="none" 
	d="
M657.775146,774.146240 
	C657.267029,775.107117 656.434509,776.060303 655.264404,776.974121 
	C655.768005,776.002625 656.609314,775.070557 657.775146,774.146240 
z"/>
<path fill="#B8B8B8" opacity="1.000000" stroke="none" 
	d="
M659.238770,840.885315 
	C659.806946,839.974121 660.701294,839.081787 661.936035,838.253479 
	C661.372620,839.179688 660.468750,840.041931 659.238770,840.885315 
z"/>
<path fill="#B8B8B8" opacity="1.000000" stroke="none" 
	d="
M666.549927,764.893616 
	C666.449768,765.558777 666.040161,766.264282 665.288330,766.967163 
	C665.377625,766.287659 665.809082,765.610840 666.549927,764.893616 
z"/>
<path fill="#B8B8B8" opacity="1.000000" stroke="none" 
	d="
M282.870331,807.435974 
	C283.511963,807.603271 284.157806,808.083618 284.766235,808.906555 
	C284.110748,808.749146 283.492645,808.249084 282.870331,807.435974 
z"/>
<path fill="#B8B8B8" opacity="1.000000" stroke="none" 
	d="
M328.158630,782.449097 
	C327.555450,782.305908 326.883789,781.867737 326.248016,781.083130 
	C326.885956,781.209229 327.488037,781.681702 328.158630,782.449097 
z"/>
<path fill="#B8B8B8" opacity="1.000000" stroke="none" 
	d="
M701.536987,801.127930 
	C701.639526,800.512451 702.034790,799.809143 702.776245,799.107788 
	C702.691467,799.753235 702.260620,800.396667 701.536987,801.127930 
z"/>
<path fill="#B8B8B8" opacity="1.000000" stroke="none" 
	d="
M294.817261,819.564026 
	C295.467194,819.658752 296.162201,820.066162 296.856110,820.815552 
	C296.190796,820.730652 295.526581,820.303711 294.817261,819.564026 
z"/>
<path fill="#B8B8B8" opacity="1.000000" stroke="none" 
	d="
M292.848877,817.529541 
	C293.455597,817.670898 294.121643,818.111023 294.769653,818.893555 
	C294.137115,818.766724 293.522644,818.297546 292.848877,817.529541 
z"/>
<path fill="#B8B8B8" opacity="1.000000" stroke="none" 
	d="
M290.836243,815.551575 
	C291.443298,815.679871 292.112274,816.107117 292.777771,816.877197 
	C292.148926,816.763611 291.523499,816.307068 290.836243,815.551575 
z"/>
<path fill="#B8B8B8" opacity="1.000000" stroke="none" 
	d="
M288.838654,813.535095 
	C289.450592,813.672058 290.116638,814.110046 290.767181,814.892212 
	C290.132080,814.769653 289.512421,814.302917 288.838654,813.535095 
z"/>
<path fill="#B8B8B8" opacity="1.000000" stroke="none" 
	d="
M286.850098,811.501343 
	C287.476532,811.641724 288.143524,812.087891 288.790100,812.878174 
	C288.143341,812.750549 287.516998,812.278870 286.850098,811.501343 
z"/>
<path fill="#B8B8B8" opacity="1.000000" stroke="none" 
	d="
M284.814819,809.575317 
	C285.455780,809.683716 286.154755,810.093567 286.830627,810.848755 
	C286.162659,810.755005 285.517731,810.315979 284.814819,809.575317 
z"/>
</svg>